<svg id="Layer_35" enable-background="new 0 0 64 64" height="512" viewBox="0 0 64 64" width="512" xmlns="http://www.w3.org/2000/svg"><path d="m26 34-6 5.75-6 5.75-6 5.75-6 5.75v5h6 6 6 6 6v-22z" fill="#ffeaa7"/><path d="m20 39.75-6 5.75-6 5.75-6 5.75v-8l24-23 6 6 19-19-4-4 14-2-2 14-4-4-19 19-4 4-6-6z" fill="#ff826e"/><g fill="#b4dd7f"><path d="m58 32h4c0 2.21-.9 4.21-2.34 5.66-1.45 1.44-3.45 2.34-5.66 2.34h-4c0-2.21.9-4.21 2.34-5.66 1.45-1.44 3.45-2.34 5.66-2.34z"/><path d="m58 44h4c0 2.21-.9 4.21-2.34 5.66-1.45 1.44-3.45 2.34-5.66 2.34h-4c0-2.21.9-4.21 2.34-5.66 1.45-1.44 3.45-2.34 5.66-2.34z"/><path d="m50 58h-4c-4.42 0-8-3.58-8-8h4c4.42 0 8 3.58 8 8z"/><path d="m50 46h-4c-4.42 0-8-3.58-8-8h4c4.42 0 8 3.58 8 8z"/></g><path d="m16 2c7.73 0 14 6.27 14 14s-6.27 14-14 14-14-6.27-14-14 6.27-14 14-14z" fill="#ffc729"/><circle cx="16" cy="16" fill="#fcd770" r="10"/><path d="m51 41h3c4.962 0 9-4.037 9-9v-1h-5c-4.962 0-9 4.037-9 9v.356c-1.651-2.044-4.174-3.356-7-3.356h-5v1c0 4.963 4.038 9 9 9h3v5 .356c-1.651-2.044-4.174-3.356-7-3.356h-5v1c0 4.963 4.038 9 9 9h3v2h-16v-20.586l22-22 4.707 4.707 2.472-17.3-17.3 2.472 4.707 4.707-17.586 17.586-4.725-4.725c2.312-2.64 3.725-6.085 3.725-9.861 0-8.271-6.729-15-15-15s-15 6.729-15 15 6.729 15 15 15c1.347 0 2.647-.195 3.89-.53l-18.89 18.103v14.427h62v-2h-12v-2-1-5h3c4.962 0 9-4.037 9-9v-1h-5c-2.826 0-5.349 1.312-7 3.356v-.356zm-38 6.844v13.156h-4v-9.323zm2-1.917 4-3.833v18.906h-4zm6-5.75 4-3.833v24.656h-4zm6-3.763 4 4v20.586h-4zm-24-20.414c0-7.168 5.832-13 13-13s13 5.832 13 13-5.832 13-13 13-13-5.832-13-13zm0 33.427 22.985-22.027 6.015 6.014 20.414-20.414-3.293-3.293 10.7-1.528-1.528 10.7-3.293-3.293-23 23-5.985-5.985-23.015 22.055zm0 8 4-3.833v7.406h-4zm55-24.427h2.929c-.487 3.388-3.408 6-6.929 6h-2.929c.487-3.388 3.408-6 6.929-6zm-12 12c-3.521 0-6.442-2.612-6.929-6h2.929c3.521 0 6.442 2.612 6.929 6zm0 12c-3.521 0-6.442-2.612-6.929-6h2.929c3.521 0 6.442 2.612 6.929 6zm12-12h2.929c-.487 3.388-3.408 6-6.929 6h-2.929c.487-3.388 3.408-6 6.929-6z"/><path d="m16 13c.551 0 1 .448 1 1h2c0-1.302-.839-2.402-2-2.816v-2.184h-2v2h-2v3c0 1.654 1.346 3 3 3 .551 0 1 .448 1 1v1h-1c-.551 0-1-.448-1-1h-2c0 1.302.839 2.402 2 2.816v2.184h2v-2h2v-3c0-1.654-1.346-3-3-3-.551 0-1-.448-1-1v-1z"/><path d="m16 5c-6.065 0-11 4.935-11 11s4.935 11 11 11 11-4.935 11-11-4.935-11-11-11zm0 20c-4.962 0-9-4.037-9-9s4.038-9 9-9 9 4.037 9 9-4.038 9-9 9z"/><path d="m21 15h2v2h-2z"/><path d="m9 15h2v2h-2z"/></svg>