<?xml version="1.0" encoding="utf-8"?>
<!-- Generator: Adobe Illustrator 19.0.0, SVG Export Plug-In . SVG Version: 6.00 Build 0)  -->
<svg version="1.1" id="Ñëîé_1" xmlns="http://www.w3.org/2000/svg" xmlns:xlink="http://www.w3.org/1999/xlink" x="0px" y="0px"
	 viewBox="0 0 1044 600" style="enable-background:new 0 0 1044 600;" xml:space="preserve">
<style type="text/css">
	.st0{opacity:0.3;}
	.st1{fill:#FFFFFF;}
	.st2{opacity:0.5;fill:#242993;}
	.st3{fill:url(#SVGID_1_);}
	.st4{fill:url(#SVGID_2_);}
	.st5{fill:#242993;}
	.st6{fill:#4553C7;}
	.st7{fill:#42FFFF;}
	.st8{fill:url(#SVGID_3_);}
	.st9{fill:url(#SVGID_4_);}
	.st10{fill:url(#SVGID_5_);}
	.st11{fill:url(#SVGID_6_);}
	.st12{fill:url(#SVGID_7_);}
	.st13{fill:url(#SVGID_8_);}
	.st14{fill:url(#SVGID_9_);}
	.st15{fill:url(#SVGID_10_);}
	.st16{fill:url(#SVGID_11_);}
	.st17{fill:url(#SVGID_12_);}
	.st18{fill:url(#SVGID_13_);}
	.st19{fill:url(#SVGID_14_);}
	.st20{fill:url(#SVGID_15_);}
	.st21{fill:url(#SVGID_16_);}
	.st22{fill:url(#SVGID_17_);}
	.st23{fill:url(#SVGID_18_);}
	.st24{fill:url(#SVGID_19_);}
	.st25{fill:url(#SVGID_20_);}
	.st26{fill:url(#SVGID_21_);}
	.st27{fill:url(#SVGID_22_);}
	.st28{fill:url(#SVGID_23_);}
	.st29{fill:url(#SVGID_24_);}
	.st30{fill:url(#SVGID_25_);}
	.st31{fill:url(#SVGID_26_);}
	.st32{fill:url(#SVGID_27_);}
	.st33{opacity:0.3;fill:url(#SVGID_28_);}
	.st34{fill:url(#SVGID_29_);}
	.st35{fill:url(#SVGID_30_);}
	.st36{fill:url(#SVGID_31_);}
	.st37{fill:url(#SVGID_32_);}
	.st38{fill:url(#SVGID_33_);}
	.st39{fill:url(#SVGID_34_);}
	.st40{opacity:0.2;fill:#3045BC;}
	.st41{fill:url(#SVGID_35_);}
	.st42{fill:url(#SVGID_36_);}
	.st43{fill:url(#SVGID_37_);}
	.st44{fill:url(#SVGID_38_);}
	.st45{fill:url(#SVGID_39_);}
	.st46{fill:url(#SVGID_40_);}
	.st47{fill:url(#SVGID_41_);}
	.st48{fill:url(#SVGID_42_);}
	.st49{fill:#DD821F;}
	.st50{fill:#FFD85A;}
	.st51{fill:#F9BF30;}
	.st52{fill:#F2B42A;}
	.st53{fill:#162184;}
	.st54{fill:url(#SVGID_43_);}
	.st55{fill:url(#SVGID_44_);}
	.st56{fill:#F0FFFF;}
	.st57{fill:#FCE8EE;}
	.st58{fill:#485DCE;}
	.st59{fill:#AA9AAC;}
	.st60{fill:#C4E3FF;}
	.st61{fill:#E2C8CF;}
	.st62{fill:url(#SVGID_45_);}
	.st63{fill:#938496;}
</style>
<g class="st0">
	<path class="st1" d="M872.7,385.9c-0.2,0-0.3,0-0.5-0.1L680.7,275.2c-3.5-2-5.5-4.8-5.5-7.8c0-3,1.9-5.8,5.5-7.8l124.7-72
		c2.9-1.7,4.5-3.8,4.5-6.1c0-2.3-1.6-4.4-4.5-6.1L594.2,53.4c-6.4-3.7-16.7-3.7-23.1,0l-70.8,40.9c-2.9,1.7-4.5,3.8-4.5,6.1
		c0,2.3,1.6,4.4,4.5,6.1l105.3,60.8c3.5,2,5.5,4.8,5.5,7.8c0,3-1.9,5.8-5.5,7.8l-157.4,90.9c-6.9,4-18.1,4-25,0l-104.6-60.4
		c-0.5-0.3-0.6-0.9-0.4-1.3c0.3-0.5,0.9-0.6,1.3-0.4l104.5,60.4c6.4,3.7,16.7,3.7,23.1,0l157.4-90.9c2.9-1.7,4.5-3.8,4.5-6.1
		c0-2.3-1.6-4.4-4.5-6.1l-105.3-60.8c-3.5-2-5.5-4.8-5.5-7.8c0-3,1.9-5.8,5.5-7.8l70.8-40.9c6.9-4,18.1-4,25,0l211.2,121.9
		c3.5,2,5.5,4.8,5.5,7.8c0,3-1.9,5.8-5.5,7.8l-124.7,72c-2.9,1.7-4.5,3.8-4.5,6.1c0,2.3,1.6,4.4,4.5,6.1l191.5,110.6
		c0.5,0.3,0.6,0.9,0.4,1.3C873.4,385.7,873,385.9,872.7,385.9z"/>
	<path class="st1" d="M827.1,303c-0.3,0-0.7-0.2-0.9-0.5c-0.3-0.5-0.1-1.1,0.4-1.3l185.9-107.3c4-2.3,6.2-5.3,6.2-8.5
		c0-3.2-2.2-6.2-6.2-8.5l-178.3-103c-8.6-5-22.7-5-31.3,0L763,97c-0.5,0.3-1.1,0.1-1.3-0.4c-0.3-0.5-0.1-1.1,0.4-1.3l39.9-23
		c9.2-5.3,24.1-5.3,33.2,0l178.3,103c4.6,2.7,7.1,6.3,7.1,10.2c0,3.9-2.5,7.5-7.1,10.2L827.6,302.9C827.4,302.9,827.2,303,827.1,303
		z"/>
	<path class="st1" d="M384.3,600c-5.1,0-10.2-1.1-14.1-3.4L115.5,449.6c-3.9-2.3-6.1-5.4-6.1-8.7s2.2-6.4,6.1-8.7l86.9-50.2
		c7.8-4.5,20.4-4.5,28.2,0l160.7,92.8c7.2,4.2,19,4.2,26.2,0l216.8-125.2c3.3-1.9,5.1-4.4,5.1-7c0-2.6-1.8-5.1-5.1-7l-64.1-37
		c-7.2-4.2-19-4.2-26.2,0l-125.5,72.5c-7.8,4.5-20.4,4.5-28.2,0L212.4,268.3c-6.5-3.8-14.7-3.8-21.3-0.2L1.5,372.6
		c-0.5,0.3-1.1,0.1-1.3-0.4c-0.3-0.5-0.1-1.1,0.4-1.3l189.6-104.5c7.2-4,16.1-3.9,23.2,0.2l177.9,102.7c7.2,4.2,19,4.2,26.2,0
		L543,296.9c7.8-4.5,20.4-4.5,28.2,0l64.1,37c3.9,2.3,6.1,5.4,6.1,8.7s-2.2,6.4-6.1,8.7L418.5,476.5c-7.8,4.5-20.4,4.5-28.2,0
		l-160.7-92.8c-7.2-4.2-19-4.2-26.2,0l-86.9,50.2c-3.3,1.9-5.1,4.4-5.1,7c0,2.6,1.8,5.1,5.1,7l254.7,147.1c7.2,4.2,19,4.2,26.2,0
		l329.6-190.3c0.5-0.3,1.1-0.1,1.3,0.4c0.3,0.5,0.1,1.1-0.4,1.3L398.4,596.6C394.5,598.9,389.4,600,384.3,600z"/>
	<path class="st1" d="M628.1,527.2c-0.2,0-0.3,0-0.5-0.1l-54.8-31.6c-0.5-0.3-0.6-0.9-0.4-1.3c0.3-0.5,0.9-0.6,1.3-0.4l54.8,31.6
		c0.5,0.3,0.6,0.9,0.4,1.3C628.7,527,628.4,527.2,628.1,527.2z"/>
	<path class="st1" d="M478.3,179.3c-0.3,0-0.7-0.2-0.9-0.5c-0.3-0.5-0.1-1.1,0.4-1.3l72.1-41.7c0.5-0.3,1.1-0.1,1.3,0.4
		c0.3,0.5,0.1,1.1-0.4,1.3l-72.1,41.7C478.6,179.2,478.5,179.3,478.3,179.3z"/>
	<path class="st1" d="M1017.8,302.1c-0.2,0-0.3,0-0.5-0.1l-94.6-54.6c-0.5-0.3-0.6-0.9-0.4-1.3c0.3-0.5,0.9-0.6,1.3-0.4l94.6,54.6
		c0.5,0.3,0.6,0.9,0.4,1.3C1018.5,301.9,1018.2,302.1,1017.8,302.1z"/>
	<path class="st1" d="M479,197.6h-32.5c-0.5,0-1-0.4-1-1v-18.8c0-0.5,0.4-1,1-1H479c0.5,0,1,0.4,1,1l0,18.8c0,0.3-0.1,0.5-0.3,0.7
		C479.5,197.5,479.3,197.6,479,197.6z M447.5,195.6H478l0-16.8h-30.5V195.6z"/>
	<path class="st1" d="M867.4,156.5h-32.5c-0.5,0-1-0.4-1-1v-18.8c0-0.5,0.4-1,1-1h32.5c0.5,0,1,0.4,1,1v18.8
		C868.4,156.1,868,156.5,867.4,156.5z M835.9,154.6h30.5v-16.8h-30.5V154.6z"/>
	<path class="st1" d="M392.1,556.7c-3.6,0-7.2-0.5-10.7-1.6c-8.9-2.6-14.1-7.6-14.1-13.4c0-5.7,5.3-10.8,14.1-13.4
		c7-2.1,14.4-2.1,21.5,0c8.9,2.6,14.1,7.6,14.1,13.4c0,5.7-5.3,10.8-14.1,13.4C399.3,556.1,395.7,556.7,392.1,556.7z M392.1,528.7
		c-3.4,0-6.8,0.5-10.2,1.5c-8,2.4-12.7,6.7-12.7,11.5c0,4.8,4.8,9.1,12.7,11.5c6.7,2,13.7,2,20.3,0c8-2.4,12.7-6.7,12.7-11.5
		c0-4.8-4.8-9.1-12.7-11.5l0,0C398.9,529.2,395.5,528.7,392.1,528.7z"/>
	<path class="st1" d="M331.4,521.6c-3.6,0-7.2-0.5-10.7-1.6c-8.9-2.6-14.1-7.6-14.1-13.4c0-5.7,5.3-10.8,14.1-13.4
		c7-2.1,14.4-2.1,21.5,0l0,0c8.9,2.6,14.1,7.6,14.1,13.4c0,5.7-5.3,10.8-14.1,13.4C338.6,521.1,335,521.6,331.4,521.6z M331.4,493.7
		c-3.4,0-6.8,0.5-10.2,1.5c-8,2.4-12.7,6.7-12.7,11.5s4.8,9.1,12.7,11.5c6.7,2,13.7,2,20.3,0c8-2.4,12.7-6.7,12.7-11.5
		s-4.8-9.1-12.7-11.5l0,0C338.2,494.2,334.8,493.7,331.4,493.7z"/>
	<path class="st1" d="M270.7,486.6c-3.6,0-7.2-0.5-10.7-1.6c-8.9-2.6-14.1-7.6-14.1-13.4c0-5.7,5.3-10.8,14.1-13.4
		c7-2.1,14.4-2.1,21.5,0c8.9,2.6,14.1,7.6,14.1,13.4c0,5.7-5.3,10.8-14.1,13.4C277.9,486,274.3,486.6,270.7,486.6z M270.7,458.6
		c-3.4,0-6.8,0.5-10.2,1.5c-8,2.4-12.7,6.7-12.7,11.5s4.8,9.1,12.7,11.5c6.7,2,13.7,2,20.3,0c8-2.4,12.7-6.7,12.7-11.5
		s-4.8-9.1-12.7-11.5l0,0C277.5,459.1,274.1,458.6,270.7,458.6z"/>
	<path class="st1" d="M210,451.5c-3.6,0-7.2-0.5-10.7-1.6c-8.9-2.6-14.1-7.6-14.1-13.4c0-5.7,5.3-10.8,14.1-13.4
		c7-2.1,14.4-2.1,21.5,0c8.9,2.6,14.1,7.6,14.1,13.4c0,5.7-5.3,10.8-14.1,13.4C217.2,451,213.6,451.5,210,451.5z M210,423.6
		c-3.4,0-6.8,0.5-10.2,1.5c-8,2.4-12.7,6.7-12.7,11.5s4.8,9.1,12.7,11.5c6.7,2,13.7,2,20.3,0c8-2.4,12.7-6.7,12.7-11.5
		c0-4.8-4.8-9.1-12.7-11.5l0,0C216.8,424.1,213.4,423.6,210,423.6z"/>
	<path class="st1" d="M226.9,427.8c-0.3,0-0.7-0.2-0.9-0.5c-0.3-0.5-0.1-1.1,0.4-1.3l39.7-22.9c0.5-0.3,1.1-0.1,1.3,0.4
		c0.3,0.5,0.1,1.1-0.4,1.3l-39.7,22.9C227.2,427.8,227,427.8,226.9,427.8z"/>
	<path class="st1" d="M444.5,569.9c-0.2,0-0.3,0-0.5-0.1l-32.9-19.2c-0.5-0.3-0.6-0.9-0.4-1.3c0.3-0.5,0.9-0.6,1.3-0.4L445,568
		c0.5,0.3,0.6,0.9,0.4,1.3C445.2,569.7,444.9,569.9,444.5,569.9z"/>
	<path class="st1" d="M660.6,545.9h-32.5c-0.5,0-1-0.4-1-1l0-18.8c0-0.3,0.1-0.5,0.3-0.7c0.2-0.2,0.4-0.3,0.7-0.3h32.5
		c0.5,0,1,0.4,1,1v18.8C661.5,545.5,661.1,545.9,660.6,545.9z M629,543.9h30.5v-16.8H629L629,543.9z"/>
</g>
<g>
	<path class="st2" d="M934.9,105.3l-65.5-37.8c-1.4-0.8-1.2-2.3,0.4-3.2L889,53.1l70.7,40.8l-19.3,11.1
		C938.8,106,936.3,106.1,934.9,105.3z"/>
	<g>
		<linearGradient id="SVGID_1_" gradientUnits="userSpaceOnUse" x1="997.9266" y1="15.1944" x2="887.968" y2="103.3689">
			<stop  offset="0" style="stop-color:#BCD5FF"/>
			<stop  offset="0.151" style="stop-color:#A3BEFF"/>
			<stop  offset="0.3866" style="stop-color:#82A0FF"/>
			<stop  offset="0.6124" style="stop-color:#6A8AFF"/>
			<stop  offset="0.8221" style="stop-color:#5C7DFF"/>
			<stop  offset="1" style="stop-color:#5778FF"/>
		</linearGradient>
		<path class="st3" d="M1028.1,53.8V40.7l-21.3,0l-47.2-27.2c-1.2-0.7-3.2-0.6-4.5,0.2l-47,27.1l-21.2,0l0,13.1h0
			c0,0.4,0.3,0.8,0.8,1.1l67.7,39.1c1.2,0.7,3.2,0.6,4.5-0.2l67-38.7C1027.7,54.8,1028,54.3,1028.1,53.8z"/>
		
			<linearGradient id="SVGID_2_" gradientUnits="userSpaceOnUse" x1="342.3619" y1="217.5552" x2="242.4071" y2="297.7078" gradientTransform="matrix(0.866 0.5 -1 0.5774 939.7776 -254.7037)">
			<stop  offset="0" style="stop-color:#C0D6FF"/>
			<stop  offset="0.2978" style="stop-color:#C5DBFF"/>
			<stop  offset="0.6488" style="stop-color:#D3E9FF"/>
			<stop  offset="1" style="stop-color:#E9FFFF"/>
		</linearGradient>
		<path class="st4" d="M955.4,81l-67.7-39.1c-1.2-0.7-1-1.8,0.3-2.6l67-38.7c1.3-0.8,3.4-0.9,4.5-0.2l67.7,39.1
			c1.2,0.7,1,1.8-0.3,2.6l-67,38.7C958.6,81.6,956.6,81.7,955.4,81z"/>
		<path class="st5" d="M955.7,76.4l-60-34.6c-1-0.6-0.9-1.6,0.3-2.3l59.4-34.3c1.2-0.7,3-0.8,4-0.2l60,34.6c1,0.6,0.9,1.6-0.3,2.3
			l-59.4,34.3C958.5,77,956.7,77,955.7,76.4z"/>
		<path class="st6" d="M955.8,73.5l-55.1-31.8c-0.9-0.5-0.8-1.5,0.3-2.1l54.6-31.5c1.1-0.6,2.7-0.7,3.7-0.2l55.1,31.8
			c0.9,0.5,0.8,1.5-0.3,2.1l-54.6,31.5C958.4,74,956.8,74.1,955.8,73.5z"/>
	</g>
	<g>
		<polygon class="st7" points="956.3,38.7 949.8,34.9 953.3,32.9 959.8,36.6 		"/>
		<polygon class="st7" points="968.2,38.1 961.8,41.9 958.3,39.8 964.7,36.1 		"/>
		<polygon class="st7" points="954.8,39.5 951.3,41.5 947.8,39.5 951.3,37.5 		"/>
		<polygon class="st7" points="967,46.5 963.4,48.6 953.3,42.7 956.8,40.7 		"/>
	</g>
</g>
<g>
	<path class="st2" d="M186.1,487.2l-65.5-37.8c-1.4-0.8-1.2-2.3,0.4-3.2l19.3-11.1l70.7,40.8L191.7,487
		C190,487.9,187.5,488,186.1,487.2z"/>
	<g>
		<linearGradient id="SVGID_3_" gradientUnits="userSpaceOnUse" x1="249.1324" y1="397.1212" x2="139.1739" y2="485.2955">
			<stop  offset="0" style="stop-color:#BCD5FF"/>
			<stop  offset="0.151" style="stop-color:#A3BEFF"/>
			<stop  offset="0.3866" style="stop-color:#82A0FF"/>
			<stop  offset="0.6124" style="stop-color:#6A8AFF"/>
			<stop  offset="0.8221" style="stop-color:#5C7DFF"/>
			<stop  offset="1" style="stop-color:#5778FF"/>
		</linearGradient>
		<path class="st8" d="M279.3,435.7v-13.1l-21.3,0l-47.2-27.2c-1.2-0.7-3.2-0.6-4.5,0.2l-47,27.1l-21.2,0l0,13.1h0
			c0,0.4,0.3,0.8,0.8,1.1l67.7,39.1c1.2,0.7,3.2,0.6,4.5-0.2l67-38.7C278.9,436.7,279.2,436.2,279.3,435.7z"/>
		
			<linearGradient id="SVGID_4_" gradientUnits="userSpaceOnUse" x1="291.9362" y1="922.6807" x2="191.9814" y2="1002.8333" gradientTransform="matrix(0.866 0.5 -1 0.5774 939.7776 -254.7037)">
			<stop  offset="0" style="stop-color:#C0D6FF"/>
			<stop  offset="0.2978" style="stop-color:#C5DBFF"/>
			<stop  offset="0.6488" style="stop-color:#D3E9FF"/>
			<stop  offset="1" style="stop-color:#E9FFFF"/>
		</linearGradient>
		<path class="st9" d="M206.6,462.9L139,423.9c-1.2-0.7-1-1.8,0.3-2.6l67-38.7c1.3-0.8,3.4-0.9,4.5-0.2l67.7,39.1
			c1.2,0.7,1,1.8-0.3,2.6l-67,38.7C209.8,463.5,207.8,463.6,206.6,462.9z"/>
		<path class="st5" d="M206.9,458.4l-60-34.6c-1-0.6-0.9-1.6,0.3-2.3l59.4-34.3c1.2-0.7,3-0.8,4-0.2l60,34.6c1,0.6,0.9,1.6-0.3,2.3
			l-59.4,34.3C209.7,458.9,207.9,459,206.9,458.4z"/>
		<path class="st6" d="M207,455.5l-55.1-31.8c-0.9-0.5-0.8-1.5,0.3-2.1l54.6-31.5c1.1-0.6,2.7-0.7,3.7-0.2l55.1,31.8
			c0.9,0.5,0.8,1.5-0.3,2.1l-54.6,31.5C209.6,455.9,208,456,207,455.5z"/>
		<g>
			<polygon class="st7" points="207.5,420.6 201,416.9 204.5,414.8 211,418.6 			"/>
			<polygon class="st7" points="219.4,420.1 213,423.8 209.5,421.8 215.9,418 			"/>
			<polygon class="st7" points="206,421.4 202.5,423.5 199,421.4 202.5,419.4 			"/>
			<polygon class="st7" points="218.2,428.5 214.6,430.5 204.5,424.6 208,422.6 			"/>
		</g>
	</g>
</g>
<g>
	<path class="st2" d="M950.8,338.4l-65.5-37.8c-1.4-0.8-1.2-2.3,0.4-3.2l19.3-11.1l70.7,40.8l-19.3,11.1
		C954.7,339.1,952.2,339.2,950.8,338.4z"/>
	<g>
		<linearGradient id="SVGID_5_" gradientUnits="userSpaceOnUse" x1="1013.8119" y1="248.2749" x2="903.8534" y2="336.4493">
			<stop  offset="0" style="stop-color:#BCD5FF"/>
			<stop  offset="0.151" style="stop-color:#A3BEFF"/>
			<stop  offset="0.3866" style="stop-color:#82A0FF"/>
			<stop  offset="0.6124" style="stop-color:#6A8AFF"/>
			<stop  offset="0.8221" style="stop-color:#5C7DFF"/>
			<stop  offset="1" style="stop-color:#5778FF"/>
		</linearGradient>
		<path class="st10" d="M1044,286.9v-13.1l-21.3,0l-47.2-27.2c-1.2-0.7-3.2-0.6-4.5,0.2l-47,27.1l-21.2,0l0,13.1h0
			c0,0.4,0.3,0.8,0.8,1.1l67.7,39.1c1.2,0.7,3.2,0.6,4.5-0.2l67-38.7C1043.6,287.9,1043.9,287.4,1044,286.9z"/>
		
			<linearGradient id="SVGID_6_" gradientUnits="userSpaceOnUse" x1="584.6077" y1="411.4547" x2="484.6529" y2="491.6073" gradientTransform="matrix(0.866 0.5 -1 0.5774 939.7776 -254.7037)">
			<stop  offset="0" style="stop-color:#C0D6FF"/>
			<stop  offset="0.2978" style="stop-color:#C5DBFF"/>
			<stop  offset="0.6488" style="stop-color:#D3E9FF"/>
			<stop  offset="1" style="stop-color:#E9FFFF"/>
		</linearGradient>
		<path class="st11" d="M971.3,314.1L903.6,275c-1.2-0.7-1-1.8,0.3-2.6l67-38.7c1.3-0.8,3.4-0.9,4.5-0.2l67.7,39.1
			c1.2,0.7,1,1.8-0.3,2.6l-67,38.7C974.5,314.7,972.5,314.8,971.3,314.1z"/>
		<path class="st5" d="M971.6,309.5l-60-34.6c-1-0.6-0.9-1.6,0.3-2.3l59.4-34.3c1.2-0.7,3-0.8,4-0.2l60,34.6c1,0.6,0.9,1.6-0.3,2.3
			l-59.4,34.3C974.4,310,972.6,310.1,971.6,309.5z"/>
		<path class="st6" d="M971.7,306.6l-55.1-31.8c-0.9-0.5-0.8-1.5,0.3-2.1l54.6-31.5c1.1-0.6,2.7-0.7,3.7-0.2l55.1,31.8
			c0.9,0.5,0.8,1.5-0.3,2.1l-54.6,31.5C974.3,307.1,972.6,307.2,971.7,306.6z"/>
	</g>
	<g>
		<polygon class="st7" points="972.1,271.7 965.7,268 969.2,266 975.7,269.7 		"/>
		<polygon class="st7" points="984.1,271.2 977.7,274.9 974.2,272.9 980.6,269.2 		"/>
		<polygon class="st7" points="970.7,272.6 967.2,274.6 963.6,272.6 967.2,270.6 		"/>
		<polygon class="st7" points="982.8,279.6 979.3,281.6 969.2,275.8 972.7,273.8 		"/>
	</g>
</g>
<g>
	<path class="st2" d="M538.2,345.2l-65.5-37.8c-1.4-0.8-1.2-2.3,0.4-3.2l19.3-11.1l70.7,40.8l-19.3,11.1
		C542.1,345.9,539.6,346,538.2,345.2z"/>
	<g>
		<linearGradient id="SVGID_7_" gradientUnits="userSpaceOnUse" x1="601.163" y1="255.0902" x2="491.2045" y2="343.2645">
			<stop  offset="0" style="stop-color:#BCD5FF"/>
			<stop  offset="0.151" style="stop-color:#A3BEFF"/>
			<stop  offset="0.3866" style="stop-color:#82A0FF"/>
			<stop  offset="0.6124" style="stop-color:#6A8AFF"/>
			<stop  offset="0.8221" style="stop-color:#5C7DFF"/>
			<stop  offset="1" style="stop-color:#5778FF"/>
		</linearGradient>
		<path class="st12" d="M631.3,293.7v-13.1l-21.3,0l-47.2-27.2c-1.2-0.7-3.2-0.6-4.5,0.2l-47,27.1l-21.2,0l0,13.1h0
			c0,0.4,0.3,0.8,0.8,1.1l67.7,39.1c1.2,0.7,3.2,0.6,4.5-0.2l67-38.7C630.9,294.7,631.3,294.2,631.3,293.7z"/>
		
			<linearGradient id="SVGID_8_" gradientUnits="userSpaceOnUse" x1="353.166" y1="623.675" x2="253.2111" y2="703.8277" gradientTransform="matrix(0.866 0.5 -1 0.5774 939.7776 -254.7037)">
			<stop  offset="0" style="stop-color:#C0D6FF"/>
			<stop  offset="0.2978" style="stop-color:#C5DBFF"/>
			<stop  offset="0.6488" style="stop-color:#D3E9FF"/>
			<stop  offset="1" style="stop-color:#E9FFFF"/>
		</linearGradient>
		<path class="st13" d="M558.7,320.9L491,281.8c-1.2-0.7-1-1.8,0.3-2.6l67-38.7c1.3-0.8,3.4-0.9,4.5-0.2l67.7,39.1
			c1.2,0.7,1,1.8-0.3,2.6l-67,38.7C561.8,321.5,559.8,321.6,558.7,320.9z"/>
		<path class="st5" d="M558.9,316.3l-60-34.6c-1-0.6-0.9-1.6,0.3-2.3l59.4-34.3c1.2-0.7,3-0.8,4-0.2l60,34.6c1,0.6,0.9,1.6-0.3,2.3
			l-59.4,34.3C561.7,316.9,559.9,316.9,558.9,316.3z"/>
		<path class="st6" d="M559.1,313.4l-55.1-31.8c-0.9-0.5-0.8-1.5,0.3-2.1l54.6-31.5c1.1-0.6,2.7-0.7,3.7-0.2l55.1,31.8
			c0.9,0.5,0.8,1.5-0.3,2.1l-54.6,31.5C561.6,313.9,560,314,559.1,313.4z"/>
	</g>
	<g>
		<polygon class="st7" points="559.5,278.6 553,274.8 556.6,272.8 563,276.5 		"/>
		<polygon class="st7" points="571.5,278 565,281.8 561.5,279.7 568,276 		"/>
		<polygon class="st7" points="558,279.4 554.5,281.4 551,279.4 554.5,277.4 		"/>
		<polygon class="st7" points="570.2,286.4 566.7,288.5 556.5,282.6 560,280.6 		"/>
	</g>
</g>
<g>
	<g>
		<g class="st0">
			<g>
				<g>
					
						<linearGradient id="SVGID_9_" gradientUnits="userSpaceOnUse" x1="520.204" y1="254.3884" x2="574.4857" y2="254.3884" gradientTransform="matrix(0.866 0.5 -1 0.5774 574.4507 -224.875)">
						<stop  offset="0" style="stop-color:#C0D6FF"/>
						<stop  offset="0.4983" style="stop-color:#D2E8FF"/>
						<stop  offset="1" style="stop-color:#E9FFFF"/>
					</linearGradient>
					<polygon class="st14" points="794.2,223.1 746.9,195.8 794.2,168.5 841.5,195.8 					"/>
					<polygon class="st1" points="794.2,221.9 747.9,195.2 746.9,195.8 794.2,223.1 841.5,195.8 840.5,195.2 					"/>
					
						<linearGradient id="SVGID_10_" gradientUnits="userSpaceOnUse" x1="1191.3445" y1="392.5781" x2="1245.6244" y2="392.5781" gradientTransform="matrix(0.866 -0.5 0 1.1547 -237.5056 469.6212)">
						<stop  offset="0" style="stop-color:#C0D6FF"/>
						<stop  offset="0.2978" style="stop-color:#C5DBFF"/>
						<stop  offset="0.6488" style="stop-color:#D3E9FF"/>
						<stop  offset="1" style="stop-color:#E9FFFF"/>
					</linearGradient>
					<polygon class="st15" points="841.5,404.2 794.2,431.5 794.2,223.1 841.5,195.8 					"/>
					
						<linearGradient id="SVGID_11_" gradientUnits="userSpaceOnUse" x1="1093.2114" y1="418.6167" x2="1174.7535" y2="418.6167" gradientTransform="matrix(0.866 0.5 0 1.1547 -230.8069 -747.9224)">
						<stop  offset="0" style="stop-color:#5778FF"/>
						<stop  offset="0.1779" style="stop-color:#5C7DFF"/>
						<stop  offset="0.3876" style="stop-color:#6A8AFF"/>
						<stop  offset="0.6134" style="stop-color:#82A0FF"/>
						<stop  offset="0.849" style="stop-color:#A3BEFF"/>
						<stop  offset="1" style="stop-color:#BCD5FF"/>
					</linearGradient>
					<polygon class="st16" points="794.2,431.5 746.9,404.2 746.9,195.8 794.2,223.1 					"/>
				</g>
			</g>
			<g>
				<g>
					
						<linearGradient id="SVGID_12_" gradientUnits="userSpaceOnUse" x1="566.3535" y1="356.0686" x2="620.6349" y2="356.0686" gradientTransform="matrix(0.866 0.5 -1 0.5774 574.4507 -224.875)">
						<stop  offset="0" style="stop-color:#C0D6FF"/>
						<stop  offset="0.4983" style="stop-color:#D2E8FF"/>
						<stop  offset="1" style="stop-color:#E9FFFF"/>
					</linearGradient>
					<polygon class="st17" points="732.5,304.8 685.2,277.5 732.5,250.2 779.8,277.5 					"/>
					<polygon class="st1" points="732.5,303.7 686.2,277 685.2,277.5 732.5,304.8 779.8,277.5 778.8,277 					"/>
					
						<linearGradient id="SVGID_13_" gradientUnits="userSpaceOnUse" x1="1120.0801" y1="412.5954" x2="1174.3601" y2="412.5954" gradientTransform="matrix(0.866 -0.5 0 1.1547 -237.5056 469.6212)">
						<stop  offset="0" style="stop-color:#C0D6FF"/>
						<stop  offset="0.2978" style="stop-color:#C5DBFF"/>
						<stop  offset="0.6488" style="stop-color:#D3E9FF"/>
						<stop  offset="1" style="stop-color:#E9FFFF"/>
					</linearGradient>
					<polygon class="st18" points="779.8,439.9 732.5,467.2 732.5,304.8 779.8,277.5 					"/>
					
						<linearGradient id="SVGID_14_" gradientUnits="userSpaceOnUse" x1="1021.9473" y1="500.3507" x2="1103.4891" y2="500.3507" gradientTransform="matrix(0.866 0.5 0 1.1547 -230.8069 -747.9224)">
						<stop  offset="0" style="stop-color:#5778FF"/>
						<stop  offset="0.1779" style="stop-color:#5C7DFF"/>
						<stop  offset="0.3876" style="stop-color:#6A8AFF"/>
						<stop  offset="0.6134" style="stop-color:#82A0FF"/>
						<stop  offset="0.849" style="stop-color:#A3BEFF"/>
						<stop  offset="1" style="stop-color:#BCD5FF"/>
					</linearGradient>
					<polygon class="st19" points="732.5,467.2 685.2,439.9 685.2,277.5 732.5,304.8 					"/>
				</g>
			</g>
			<g>
				<g>
					
						<linearGradient id="SVGID_15_" gradientUnits="userSpaceOnUse" x1="580.0674" y1="429.6597" x2="634.3489" y2="429.6597" gradientTransform="matrix(0.866 0.5 -1 0.5774 574.4507 -224.875)">
						<stop  offset="0" style="stop-color:#C0D6FF"/>
						<stop  offset="0.4983" style="stop-color:#D2E8FF"/>
						<stop  offset="1" style="stop-color:#E9FFFF"/>
					</linearGradient>
					<polygon class="st20" points="670.8,354.2 623.5,326.9 670.8,299.6 718,326.9 					"/>
					<polygon class="st1" points="670.8,353.1 624.5,326.3 623.5,326.9 670.8,354.2 718,326.9 717.1,326.3 					"/>
					
						<linearGradient id="SVGID_16_" gradientUnits="userSpaceOnUse" x1="1048.8158" y1="418.5674" x2="1103.0959" y2="418.5674" gradientTransform="matrix(0.866 -0.5 0 1.1547 -237.5056 469.6212)">
						<stop  offset="0" style="stop-color:#C0D6FF"/>
						<stop  offset="0.2978" style="stop-color:#C5DBFF"/>
						<stop  offset="0.6488" style="stop-color:#D3E9FF"/>
						<stop  offset="1" style="stop-color:#E9FFFF"/>
					</linearGradient>
					<polygon class="st21" points="718,475.6 670.8,502.9 670.8,354.2 718,326.9 					"/>
					
						<linearGradient id="SVGID_17_" gradientUnits="userSpaceOnUse" x1="950.683" y1="568.0395" x2="1032.2249" y2="568.0395" gradientTransform="matrix(0.866 0.5 0 1.1547 -230.8069 -747.9224)">
						<stop  offset="0" style="stop-color:#5778FF"/>
						<stop  offset="0.1779" style="stop-color:#5C7DFF"/>
						<stop  offset="0.3876" style="stop-color:#6A8AFF"/>
						<stop  offset="0.6134" style="stop-color:#82A0FF"/>
						<stop  offset="0.849" style="stop-color:#A3BEFF"/>
						<stop  offset="1" style="stop-color:#BCD5FF"/>
					</linearGradient>
					<polygon class="st22" points="670.8,502.9 623.5,475.6 623.5,326.9 670.8,354.2 					"/>
				</g>
			</g>
			<g>
				<g>
					
						<linearGradient id="SVGID_18_" gradientUnits="userSpaceOnUse" x1="624.2602" y1="529.6456" x2="678.5417" y2="529.6456" gradientTransform="matrix(0.866 0.5 -1 0.5774 574.4507 -224.875)">
						<stop  offset="0" style="stop-color:#C0D6FF"/>
						<stop  offset="0.4983" style="stop-color:#D2E8FF"/>
						<stop  offset="1" style="stop-color:#E9FFFF"/>
					</linearGradient>
					<polygon class="st23" points="609.1,434 561.8,406.7 609.1,379.4 656.3,406.7 					"/>
					<polygon class="st1" points="609.1,432.9 562.8,406.2 561.8,406.7 609.1,434 656.3,406.7 655.4,406.2 					"/>
					
						<linearGradient id="SVGID_19_" gradientUnits="userSpaceOnUse" x1="977.5516" y1="437.7377" x2="1031.8315" y2="437.7377" gradientTransform="matrix(0.866 -0.5 0 1.1547 -237.5056 469.6212)">
						<stop  offset="0" style="stop-color:#C0D6FF"/>
						<stop  offset="0.2978" style="stop-color:#C5DBFF"/>
						<stop  offset="0.6488" style="stop-color:#D3E9FF"/>
						<stop  offset="1" style="stop-color:#E9FFFF"/>
					</linearGradient>
					<polygon class="st24" points="656.3,511.3 609.1,538.6 609.1,434 656.3,406.7 					"/>
					
						<linearGradient id="SVGID_20_" gradientUnits="userSpaceOnUse" x1="879.4185" y1="648.9265" x2="960.9606" y2="648.9265" gradientTransform="matrix(0.866 0.5 0 1.1547 -230.8069 -747.9224)">
						<stop  offset="0" style="stop-color:#5778FF"/>
						<stop  offset="0.1779" style="stop-color:#5C7DFF"/>
						<stop  offset="0.3876" style="stop-color:#6A8AFF"/>
						<stop  offset="0.6134" style="stop-color:#82A0FF"/>
						<stop  offset="0.849" style="stop-color:#A3BEFF"/>
						<stop  offset="1" style="stop-color:#BCD5FF"/>
					</linearGradient>
					<polygon class="st25" points="609.1,538.6 561.8,511.3 561.8,406.7 609.1,434 					"/>
				</g>
			</g>
			<g>
				<g>
					
						<linearGradient id="SVGID_21_" gradientUnits="userSpaceOnUse" x1="613.7332" y1="582.2441" x2="668.0148" y2="582.2441" gradientTransform="matrix(0.866 0.5 -1 0.5774 574.4507 -224.875)">
						<stop  offset="0" style="stop-color:#C0D6FF"/>
						<stop  offset="0.4983" style="stop-color:#D2E8FF"/>
						<stop  offset="1" style="stop-color:#E9FFFF"/>
					</linearGradient>
					<polygon class="st26" points="547.3,459.1 500.1,431.8 547.3,404.5 594.6,431.8 					"/>
					<polygon class="st1" points="547.3,458 501,431.3 500.1,431.8 547.3,459.1 594.6,431.8 593.6,431.3 					"/>
					
						<linearGradient id="SVGID_22_" gradientUnits="userSpaceOnUse" x1="906.2872" y1="433.2127" x2="960.5672" y2="433.2127" gradientTransform="matrix(0.866 -0.5 0 1.1547 -237.5056 469.6212)">
						<stop  offset="0" style="stop-color:#C0D6FF"/>
						<stop  offset="0.2978" style="stop-color:#C5DBFF"/>
						<stop  offset="0.6488" style="stop-color:#D3E9FF"/>
						<stop  offset="1" style="stop-color:#E9FFFF"/>
					</linearGradient>
					<polygon class="st27" points="594.6,547 547.3,574.3 547.3,459.1 594.6,431.8 					"/>
					
						<linearGradient id="SVGID_23_" gradientUnits="userSpaceOnUse" x1="808.1545" y1="706.1182" x2="889.6964" y2="706.1182" gradientTransform="matrix(0.866 0.5 0 1.1547 -230.8069 -747.9224)">
						<stop  offset="0" style="stop-color:#5778FF"/>
						<stop  offset="0.1779" style="stop-color:#5C7DFF"/>
						<stop  offset="0.3876" style="stop-color:#6A8AFF"/>
						<stop  offset="0.6134" style="stop-color:#82A0FF"/>
						<stop  offset="0.849" style="stop-color:#A3BEFF"/>
						<stop  offset="1" style="stop-color:#BCD5FF"/>
					</linearGradient>
					<polygon class="st28" points="547.3,574.3 500.1,547 500.1,431.8 547.3,459.1 					"/>
				</g>
			</g>
		</g>
		<polygon class="st2" points="594.6,456.1 794.2,340.6 779.8,313.3 585.4,434.7 		"/>
		<g>
			<g>
				<g>
					
						<linearGradient id="SVGID_24_" gradientUnits="userSpaceOnUse" x1="479.2817" y1="218.9497" x2="533.5633" y2="218.9497" gradientTransform="matrix(0.866 0.5 -1 0.5774 574.4507 -224.875)">
						<stop  offset="0" style="stop-color:#C0D6FF"/>
						<stop  offset="0.4983" style="stop-color:#D2E8FF"/>
						<stop  offset="1" style="stop-color:#E9FFFF"/>
					</linearGradient>
					<polygon class="st29" points="794.2,182.1 746.9,154.8 794.2,127.5 841.5,154.8 					"/>
					<polygon class="st1" points="794.2,181 747.9,154.3 746.9,154.8 794.2,182.1 841.5,154.8 840.5,154.3 					"/>
					
						<linearGradient id="SVGID_25_" gradientUnits="userSpaceOnUse" x1="1191.3445" y1="335.4943" x2="1245.6244" y2="335.4943" gradientTransform="matrix(0.866 -0.5 0 1.1547 -237.5056 469.6212)">
						<stop  offset="0" style="stop-color:#C0D6FF"/>
						<stop  offset="0.2978" style="stop-color:#C5DBFF"/>
						<stop  offset="0.6488" style="stop-color:#D3E9FF"/>
						<stop  offset="1" style="stop-color:#E9FFFF"/>
					</linearGradient>
					<polygon class="st30" points="841.5,313.3 794.2,340.6 794.2,182.1 841.5,154.8 					"/>
					
						<linearGradient id="SVGID_26_" gradientUnits="userSpaceOnUse" x1="1093.2114" y1="361.5329" x2="1174.7535" y2="361.5329" gradientTransform="matrix(0.866 0.5 0 1.1547 -230.8069 -747.9224)">
						<stop  offset="0" style="stop-color:#5778FF"/>
						<stop  offset="0.1779" style="stop-color:#5C7DFF"/>
						<stop  offset="0.3876" style="stop-color:#6A8AFF"/>
						<stop  offset="0.6134" style="stop-color:#82A0FF"/>
						<stop  offset="0.849" style="stop-color:#A3BEFF"/>
						<stop  offset="1" style="stop-color:#BCD5FF"/>
					</linearGradient>
					<polygon class="st31" points="794.2,340.6 746.9,313.3 746.9,154.8 794.2,182.1 					"/>
				</g>
			</g>
			<g>
				<g>
					
						<linearGradient id="SVGID_27_" gradientUnits="userSpaceOnUse" x1="525.4307" y1="320.6302" x2="579.7123" y2="320.6302" gradientTransform="matrix(0.866 0.5 -1 0.5774 574.4507 -224.875)">
						<stop  offset="0" style="stop-color:#C0D6FF"/>
						<stop  offset="0.4983" style="stop-color:#D2E8FF"/>
						<stop  offset="1" style="stop-color:#E9FFFF"/>
					</linearGradient>
					<polygon class="st32" points="732.5,263.9 685.2,236.6 732.5,209.3 779.8,236.6 					"/>
					
						<linearGradient id="SVGID_28_" gradientUnits="userSpaceOnUse" x1="535.3503" y1="320.6301" x2="569.9056" y2="320.6301" gradientTransform="matrix(0.866 0.5 -1 0.5774 574.4507 -224.875)">
						<stop  offset="0" style="stop-color:#5778FF"/>
						<stop  offset="0.1779" style="stop-color:#5C7DFF"/>
						<stop  offset="0.3876" style="stop-color:#6A8AFF"/>
						<stop  offset="0.6134" style="stop-color:#82A0FF"/>
						<stop  offset="0.849" style="stop-color:#A3BEFF"/>
						<stop  offset="1" style="stop-color:#BCD5FF"/>
					</linearGradient>
					<polygon class="st33" points="732.5,254 702.4,236.6 732.5,219.2 762.6,236.6 					"/>
					<polygon class="st1" points="732.5,262.8 686.2,236.1 685.2,236.6 732.5,263.9 779.8,236.6 778.8,236.1 					"/>
					
						<linearGradient id="SVGID_29_" gradientUnits="userSpaceOnUse" x1="1120.0793" y1="355.5114" x2="1174.3594" y2="355.5114" gradientTransform="matrix(0.866 -0.5 0 1.1547 -237.5056 469.6212)">
						<stop  offset="0" style="stop-color:#C0D6FF"/>
						<stop  offset="0.2978" style="stop-color:#C5DBFF"/>
						<stop  offset="0.6488" style="stop-color:#D3E9FF"/>
						<stop  offset="1" style="stop-color:#E9FFFF"/>
					</linearGradient>
					<polygon class="st34" points="779.8,349 732.5,376.3 732.5,263.9 779.8,236.6 					"/>
					
						<linearGradient id="SVGID_30_" gradientUnits="userSpaceOnUse" x1="1021.9463" y1="443.2674" x2="1103.4884" y2="443.2674" gradientTransform="matrix(0.866 0.5 0 1.1547 -230.8069 -747.9224)">
						<stop  offset="0" style="stop-color:#5778FF"/>
						<stop  offset="0.1779" style="stop-color:#5C7DFF"/>
						<stop  offset="0.3876" style="stop-color:#6A8AFF"/>
						<stop  offset="0.6134" style="stop-color:#82A0FF"/>
						<stop  offset="0.849" style="stop-color:#A3BEFF"/>
						<stop  offset="1" style="stop-color:#BCD5FF"/>
					</linearGradient>
					<polygon class="st35" points="732.5,376.3 685.2,349 685.2,236.6 732.5,263.9 					"/>
				</g>
			</g>
			<g>
				<g>
					
						<linearGradient id="SVGID_31_" gradientUnits="userSpaceOnUse" x1="484.571" y1="285.245" x2="538.8525" y2="285.245" gradientTransform="matrix(0.866 0.5 -1 0.5774 574.4507 -224.875)">
						<stop  offset="0" style="stop-color:#C0D6FF"/>
						<stop  offset="0.4983" style="stop-color:#D2E8FF"/>
						<stop  offset="1" style="stop-color:#E9FFFF"/>
					</linearGradient>
					<polygon class="st36" points="732.5,223.1 685.2,195.8 732.5,168.5 779.8,195.8 					"/>
					<polygon class="st1" points="732.5,221.9 686.2,195.2 685.2,195.8 732.5,223.1 779.8,195.8 778.8,195.2 					"/>
					
						<linearGradient id="SVGID_32_" gradientUnits="userSpaceOnUse" x1="1120.0801" y1="279.8295" x2="1174.3601" y2="279.8295" gradientTransform="matrix(0.866 -0.5 0 1.1547 -237.5056 469.6212)">
						<stop  offset="0" style="stop-color:#C0D6FF"/>
						<stop  offset="0.2978" style="stop-color:#C5DBFF"/>
						<stop  offset="0.6488" style="stop-color:#D3E9FF"/>
						<stop  offset="1" style="stop-color:#E9FFFF"/>
					</linearGradient>
					<polygon class="st37" points="779.8,215.1 732.5,242.3 732.5,223.1 779.8,195.8 					"/>
					
						<linearGradient id="SVGID_33_" gradientUnits="userSpaceOnUse" x1="1021.9473" y1="367.5848" x2="1103.4891" y2="367.5848" gradientTransform="matrix(0.866 0.5 0 1.1547 -230.8069 -747.9224)">
						<stop  offset="0" style="stop-color:#5778FF"/>
						<stop  offset="0.1779" style="stop-color:#5C7DFF"/>
						<stop  offset="0.3876" style="stop-color:#6A8AFF"/>
						<stop  offset="0.6134" style="stop-color:#82A0FF"/>
						<stop  offset="0.849" style="stop-color:#A3BEFF"/>
						<stop  offset="1" style="stop-color:#BCD5FF"/>
					</linearGradient>
					<polygon class="st38" points="732.5,242.3 685.2,215.1 685.2,195.8 732.5,223.1 					"/>
				</g>
			</g>
			<g>
				<g>
					
						<linearGradient id="SVGID_34_" gradientUnits="userSpaceOnUse" x1="539.145" y1="394.221" x2="593.4266" y2="394.221" gradientTransform="matrix(0.866 0.5 -1 0.5774 574.4507 -224.875)">
						<stop  offset="0" style="stop-color:#C0D6FF"/>
						<stop  offset="0.4983" style="stop-color:#D2E8FF"/>
						<stop  offset="1" style="stop-color:#E9FFFF"/>
					</linearGradient>
					<polygon class="st39" points="670.8,313.3 623.5,286 670.8,258.7 718,286 					"/>
					<path class="st40" d="M670.7,296.9L670.7,296.9c-19.6,0-31.8-10.8-22-19.3l0,0c4.5-4,12.9-6.4,22-6.4h0
						c19.6,0,31.8,10.8,22,19.3v0C688.2,294.5,679.8,296.9,670.7,296.9z"/>
					<polygon class="st1" points="670.8,312.1 624.5,285.4 623.5,286 670.8,313.3 718,286 717.1,285.4 					"/>
					
						<linearGradient id="SVGID_35_" gradientUnits="userSpaceOnUse" x1="1048.8158" y1="361.4838" x2="1103.0959" y2="361.4838" gradientTransform="matrix(0.866 -0.5 0 1.1547 -237.5056 469.6212)">
						<stop  offset="0" style="stop-color:#C0D6FF"/>
						<stop  offset="0.2978" style="stop-color:#C5DBFF"/>
						<stop  offset="0.6488" style="stop-color:#D3E9FF"/>
						<stop  offset="1" style="stop-color:#E9FFFF"/>
					</linearGradient>
					<polygon class="st41" points="718,384.7 670.8,412 670.8,313.3 718,286 					"/>
					
						<linearGradient id="SVGID_36_" gradientUnits="userSpaceOnUse" x1="950.683" y1="510.9558" x2="1032.2249" y2="510.9558" gradientTransform="matrix(0.866 0.5 0 1.1547 -230.8069 -747.9224)">
						<stop  offset="0" style="stop-color:#5778FF"/>
						<stop  offset="0.1779" style="stop-color:#5C7DFF"/>
						<stop  offset="0.3876" style="stop-color:#6A8AFF"/>
						<stop  offset="0.6134" style="stop-color:#82A0FF"/>
						<stop  offset="0.849" style="stop-color:#A3BEFF"/>
						<stop  offset="1" style="stop-color:#BCD5FF"/>
					</linearGradient>
					<polygon class="st42" points="670.8,412 623.5,384.7 623.5,286 670.8,313.3 					"/>
				</g>
			</g>
			<g>
				<g>
					
						<linearGradient id="SVGID_37_" gradientUnits="userSpaceOnUse" x1="583.3378" y1="494.2069" x2="637.6194" y2="494.2069" gradientTransform="matrix(0.866 0.5 -1 0.5774 574.4507 -224.875)">
						<stop  offset="0" style="stop-color:#C0D6FF"/>
						<stop  offset="0.4983" style="stop-color:#D2E8FF"/>
						<stop  offset="1" style="stop-color:#E9FFFF"/>
					</linearGradient>
					<polygon class="st43" points="609.1,393.1 561.8,365.8 609.1,338.5 656.3,365.8 					"/>
					<polygon class="st1" points="609.1,392 562.8,365.2 561.8,365.8 609.1,393.1 656.3,365.8 655.4,365.2 					"/>
					
						<linearGradient id="SVGID_38_" gradientUnits="userSpaceOnUse" x1="977.5516" y1="380.654" x2="1031.8315" y2="380.654" gradientTransform="matrix(0.866 -0.5 0 1.1547 -237.5056 469.6212)">
						<stop  offset="0" style="stop-color:#C0D6FF"/>
						<stop  offset="0.2978" style="stop-color:#C5DBFF"/>
						<stop  offset="0.6488" style="stop-color:#D3E9FF"/>
						<stop  offset="1" style="stop-color:#E9FFFF"/>
					</linearGradient>
					<polygon class="st44" points="656.3,420.4 609.1,447.7 609.1,393.1 656.3,365.8 					"/>
					
						<linearGradient id="SVGID_39_" gradientUnits="userSpaceOnUse" x1="879.4185" y1="591.8427" x2="960.9606" y2="591.8427" gradientTransform="matrix(0.866 0.5 0 1.1547 -230.8069 -747.9224)">
						<stop  offset="0" style="stop-color:#5778FF"/>
						<stop  offset="0.1779" style="stop-color:#5C7DFF"/>
						<stop  offset="0.3876" style="stop-color:#6A8AFF"/>
						<stop  offset="0.6134" style="stop-color:#82A0FF"/>
						<stop  offset="0.849" style="stop-color:#A3BEFF"/>
						<stop  offset="1" style="stop-color:#BCD5FF"/>
					</linearGradient>
					<polygon class="st45" points="609.1,447.7 561.8,420.4 561.8,365.8 609.1,393.1 					"/>
				</g>
			</g>
			<g>
				<g>
					
						<linearGradient id="SVGID_40_" gradientUnits="userSpaceOnUse" x1="572.8107" y1="546.8052" x2="627.0923" y2="546.8052" gradientTransform="matrix(0.866 0.5 -1 0.5774 574.4507 -224.875)">
						<stop  offset="0" style="stop-color:#C0D6FF"/>
						<stop  offset="0.4983" style="stop-color:#D2E8FF"/>
						<stop  offset="1" style="stop-color:#E9FFFF"/>
					</linearGradient>
					<polygon class="st46" points="547.3,418.2 500.1,390.9 547.3,363.6 594.6,390.9 					"/>
					<polygon class="st1" points="547.3,417.1 501,390.3 500.1,390.9 547.3,418.2 594.6,390.9 593.6,390.3 					"/>
					
						<linearGradient id="SVGID_41_" gradientUnits="userSpaceOnUse" x1="906.2872" y1="376.1291" x2="960.5672" y2="376.1291" gradientTransform="matrix(0.866 -0.5 0 1.1547 -237.5056 469.6212)">
						<stop  offset="0" style="stop-color:#C0D6FF"/>
						<stop  offset="0.2978" style="stop-color:#C5DBFF"/>
						<stop  offset="0.6488" style="stop-color:#D3E9FF"/>
						<stop  offset="1" style="stop-color:#E9FFFF"/>
					</linearGradient>
					<polygon class="st47" points="594.6,456.1 547.3,483.4 547.3,418.2 594.6,390.9 					"/>
					
						<linearGradient id="SVGID_42_" gradientUnits="userSpaceOnUse" x1="808.1545" y1="649.0345" x2="889.6964" y2="649.0345" gradientTransform="matrix(0.866 0.5 0 1.1547 -230.8069 -747.9224)">
						<stop  offset="0" style="stop-color:#5778FF"/>
						<stop  offset="0.1779" style="stop-color:#5C7DFF"/>
						<stop  offset="0.3876" style="stop-color:#6A8AFF"/>
						<stop  offset="0.6134" style="stop-color:#82A0FF"/>
						<stop  offset="0.849" style="stop-color:#A3BEFF"/>
						<stop  offset="1" style="stop-color:#BCD5FF"/>
					</linearGradient>
					<polygon class="st48" points="547.3,483.4 500.1,456.1 500.1,390.9 547.3,418.2 					"/>
				</g>
			</g>
		</g>
	</g>
	<g>
		<path class="st2" d="M692,199.7l22.6,13c17.9-6.3,30.9-15.8,29-21.4c-1.9-5.5-18.1-4.9-36,1.4C701.7,194.8,696.4,197.2,692,199.7z
			"/>
		<g>
			<g>
				<g>
					<polygon class="st49" points="698.1,171.3 698.3,165.6 699.6,162.3 700.4,165.1 					"/>
				</g>
				<g>
					<path class="st50" d="M757.6,172.4l0.2-5.6c0,0-4.7,4.7-4.7,4.8C753.1,171.7,757.6,172.4,757.6,172.4z"/>
				</g>
				<g>
					<g>
						<path class="st50" d="M727.4,188.9c-16.4-0.4-29.5-8.7-29.1-23.3c0.3-14.5,13.9-25.9,30.4-25.6c16.4,0.4,29.5,12.5,29.1,27
							C757.4,181.6,743.8,189.3,727.4,188.9z"/>
					</g>
					<g>
						
							<ellipse transform="matrix(-2.393973e-002 0.9997 -0.9997 -2.393973e-002 917.1949 -551.4745)" class="st50" cx="727.8" cy="172" rx="26.3" ry="29.8"/>
					</g>
					<g>
						<path class="st49" d="M707,153.1c-5.4,4.6-8.8,11-9,18.2c-0.3,14.5,12.7,26.6,29.1,27c8.1,0.2,15.6-2.5,21-7L707,153.1z"/>
					</g>
					<g>
						
							<ellipse transform="matrix(-2.394011e-002 0.9997 -0.9997 -2.394011e-002 917.1951 -551.4745)" class="st51" cx="727.8" cy="172" rx="25.1" ry="28.4"/>
					</g>
					<g>
						
							<ellipse transform="matrix(-2.393888e-002 0.9997 -0.9997 -2.393888e-002 917.1943 -551.4748)" class="st52" cx="727.8" cy="172" rx="20.1" ry="22.8"/>
					</g>
					<g>
						<path class="st50" d="M750.6,172.6c0-0.5,0-0.9,0-1.4c-1,10.5-11.1,18.5-23.2,18.2c-12.1-0.3-21.8-8.8-22.3-19.3
							c0,0.5-0.1,0.9-0.1,1.4c-0.3,11.1,9.7,20.4,22.3,20.7C739.9,192.5,750.4,183.7,750.6,172.6z"/>
					</g>
					<g>
						<g>
							<path class="st50" d="M732.2,173.7l-4.7-4.3c-4.5,1-12.9,2.9-19.6,4.5c1.7,5,5.7,9.2,11.1,11.4L732.2,173.7z"/>
						</g>
						<g>
							<path class="st50" d="M724.8,186.8c0.7,0.1,1.5,0.1,2.3,0.2c5.5,0.1,10.6-1.7,14.3-4.7l-7.6-7.1L724.8,186.8z"/>
						</g>
						<g>
							<path class="st50" d="M722.5,164.7l-8.8-8.2c-3,2.6-5.6,5.4-6.3,9.3L722.5,164.7z"/>
						</g>
					</g>
					<g>
						<path class="st49" d="M727.1,154.3c12.6,0.3,22.6,9.6,22.3,20.7c-0.1,2.3-0.5,4.4-1.4,6.4c1.6-2.6,2.5-5.6,2.5-8.8
							c0.3-11.1-9.7-20.4-22.3-20.7c-10-0.2-18.7,5.3-21.9,13.2C710.2,158.5,718.1,154.1,727.1,154.3z"/>
					</g>
				</g>
				<g>
					<path class="st49" d="M698.3,165.6c-0.1,2.2-0.3,3.7,0.3,5.7c0.7-2.1,2.1-8.5,2.1-8.5l2.3-5.1l1.9-1.6l3.2-2.3l0.3-7.3
						C702.3,151.3,698.5,158,698.3,165.6z"/>
				</g>
			</g>
			<g>
				<g>
					<path class="st49" d="M755.9,164.9l0.1-1.5c0-0.2,0.2-0.4,0.4-0.4l0.1,0c0.2,0,0.4,0.2,0.4,0.4l-0.1,1.5c0,0.2-0.2,0.4-0.4,0.4
						l-0.1,0C756,165.3,755.9,165.1,755.9,164.9z"/>
				</g>
				<g>
					<path class="st49" d="M753.3,159.2l0.2-2.7c0-0.2,0.2-0.4,0.4-0.4l0.3,0c0.2,0,0.4,0.2,0.4,0.5l-0.2,2.7c0,0.2-0.2,0.4-0.4,0.4
						l-0.3,0C753.4,159.6,753.2,159.4,753.3,159.2z"/>
				</g>
				<g>
					<path class="st49" d="M749.6,154.2l0.2-2.6c0-0.3,0.2-0.5,0.5-0.5l0.5,0c0.3,0,0.5,0.2,0.5,0.5l-0.2,2.6c0,0.3-0.2,0.5-0.5,0.5
						l-0.5,0C749.8,154.7,749.6,154.4,749.6,154.2z"/>
				</g>
				<g>
					<path class="st49" d="M744.2,150.1l0.2-3.2c0-0.3,0.2-0.5,0.5-0.5l0.5,0c0.3,0,0.5,0.2,0.5,0.5l-0.2,3.2c0,0.3-0.2,0.5-0.5,0.5
						l-0.5,0C744.4,150.6,744.2,150.4,744.2,150.1z"/>
				</g>
				<g>
					<path class="st49" d="M738.7,147.5l0.2-3.6c0-0.3,0.2-0.5,0.5-0.5l0.5,0c0.3,0,0.5,0.2,0.5,0.5l-0.2,3.6c0,0.3-0.2,0.5-0.5,0.5
						l-0.5,0C738.9,148,738.7,147.8,738.7,147.5z"/>
				</g>
				<g>
					<path class="st49" d="M733.3,145.9l0.2-3.5c0-0.3,0.2-0.5,0.5-0.5l0.5,0c0.3,0,0.5,0.2,0.5,0.5l-0.2,3.5c0,0.3-0.2,0.5-0.5,0.5
						l-0.5,0C733.5,146.4,733.3,146.1,733.3,145.9z"/>
				</g>
				<g>
					<path class="st49" d="M727.8,145.3l0.2-3.5c0-0.3,0.2-0.5,0.5-0.5l0.5,0c0.3,0,0.5,0.2,0.5,0.5l-0.2,3.5c0,0.3-0.2,0.5-0.5,0.5
						l-0.5,0C728,145.8,727.7,145.6,727.8,145.3z"/>
				</g>
				<g>
					<path class="st49" d="M722.2,145.4l0.2-3.3c0-0.3,0.2-0.5,0.5-0.5l0.5,0c0.3,0,0.5,0.2,0.5,0.5l-0.2,3.3c0,0.3-0.2,0.5-0.5,0.5
						l-0.5,0C722.4,145.9,722.2,145.7,722.2,145.4z"/>
				</g>
				<g>
					<path class="st49" d="M716.7,146.6l0.2-3.2c0-0.3,0.2-0.5,0.5-0.5l0.5,0c0.3,0,0.5,0.2,0.5,0.5l-0.2,3.2c0,0.3-0.2,0.5-0.5,0.5
						l-0.5,0C716.9,147.1,716.7,146.9,716.7,146.6z"/>
				</g>
				<g>
					<path class="st49" d="M711.1,149.3l0.2-3.5c0-0.3,0.2-0.5,0.5-0.5l0.5,0c0.3,0,0.5,0.2,0.5,0.5l-0.2,3.5c0,0.3-0.2,0.5-0.5,0.5
						l-0.5,0C711.3,149.9,711.1,149.6,711.1,149.3z"/>
				</g>
			</g>
		</g>
	</g>
	<g>
		<path class="st53" d="M683.3,266.5c0,0,0.8,0.9,1.7,1.9c0.9,1,3.3,2.5,4.4,3.1c1,0.6,5.8,4.2,6.8,7.8c1,3.5-2.4,4-5.9,3.4
			c-3.5-0.6-6.7-3.8-7.6-5c-0.9-1.2-4.2-3.8-8.5-6c-4.2-2.2-1.7-5.2-1.7-5.2L683.3,266.5z"/>
		<path class="st53" d="M651.7,277c0,0-0.7,1.6-0.9,3.6c-0.2,2-0.5,6.5-0.6,7.8c-0.1,1.3-0.1,4.5,2.1,7.5c2.3,3,3.5,4.2,6.5,3
			c3-1.2,3-6.3,2.4-8.9c-0.5-2.6-1-8.5-1-9.1c0.1-0.6-0.2-1-0.2-1L651.7,277z"/>
		<path class="st5" d="M693.8,206.4c0,0-0.6,23.3-6.1,35.7c0,0-3.9,10.9-4.4,23.9c0,0,0.9,2.2-0.4,4.1c-1.3,1.8-9.3,3.5-10.6-2.5
			c-1.3-6-0.8-17.1,0.6-21.8c1.5-4.7-0.5-17.5-0.5-17.5s-2.2,1.4-5,10.6c-2.9,9.2-5,12.7-6,15.3c-1,2.5-1.9,18.2-1.3,25.8
			c0,0-6.5,0.9-8.3-2.2c-1.9-3.1-2.5-19.1-2-24.2s2.6-21.4,2.3-26.5c-0.3-5.1-1.3-9.2-0.2-14.2c1.2-5,35.3-16.3,35.3-16.3
			L693.8,206.4z"/>
		<path class="st53" d="M652.1,227.2c-0.3-5.1-1.3-9.2-0.2-14.2c0.4-1.9,5.5-4.7,11.7-7.4c10.4-1,23.7-2.1,24.6-1.9
			c0.8,0.1,3,0.9,4.8,1.7l0.7,1.1c0,0,0,1.4-0.2,3.7c-2.4,0.7-7.1,0-7.1,0c-0.7,1.6-4.7,7.5-9.8,10s-19.9,1.7-20.7,2.6
			c-0.9,1-1,13.7-0.9,15.4c0.1,1.6-1.4,11.9-2.8,20.9c-1.4,8.9,0.7,19.7,0.8,20.1c-0.5-0.3-0.9-0.7-1.2-1.2
			c-1.9-3.1-2.5-19.1-2-24.2S652.4,232.2,652.1,227.2z"/>
		<path class="st6" d="M682.3,130.1c0,0,7.6,1.7,10.1,2.3c0.4,0.1,0.8,0.4,0.9,0.8c0.7,1.9,2.6,7.6,1.2,16.1
			c-1.7,10.4-1.2,17.4-1.2,17.4l3.5,18.2c0,0,4.4,17.4,4,17.8c-0.4,0.5-10.1,7.9-13.2,6.9c-3-1-2-2.8-2-2.8s-2.5,12.6-13.4,12.5
			c-10.9-0.1-19.9-0.1-21.7-4.5c-1.9-4.4,0.5-23,2.4-30.4c1.9-7.4,6.5-22,6.5-22l-16-17.7l13.7-10.5c0,0,3.3-6.1,4.6-6.8
			c1.3-0.8,2-0.1,2-0.1L682.3,130.1z"/>
		<g>
			
				<linearGradient id="SVGID_43_" gradientUnits="userSpaceOnUse" x1="1971.3966" y1="157.7235" x2="1985.9607" y2="157.7235" gradientTransform="matrix(-0.9983 5.790000e-002 5.790000e-002 0.9983 2659.6897 -65.6243)">
				<stop  offset="0" style="stop-color:#5778FF"/>
				<stop  offset="7.257640e-002" style="stop-color:#5489FF"/>
				<stop  offset="0.2791" style="stop-color:#4EB3FF"/>
				<stop  offset="0.4801" style="stop-color:#49D4FF"/>
				<stop  offset="0.6715" style="stop-color:#45ECFF"/>
				<stop  offset="0.8493" style="stop-color:#43FAFF"/>
				<stop  offset="1" style="stop-color:#42FFFF"/>
			</linearGradient>
			<path class="st54" d="M687.5,205.6c0,0.6,0.4,1.6,2.3,2.2c2.1,0.7,7.3-2.4,10.7-4.8c-1.7,1.4-10.1,7.5-12.9,6.6
				c-0.6-0.2-1-0.4-1.4-0.7C687,207.5,687.4,206.3,687.5,205.6z"/>
			
				<linearGradient id="SVGID_44_" gradientUnits="userSpaceOnUse" x1="1991.986" y1="162.4459" x2="2022.4554" y2="162.4459" gradientTransform="matrix(-0.9983 5.790000e-002 5.790000e-002 0.9983 2659.6897 -65.6243)">
				<stop  offset="0" style="stop-color:#5778FF"/>
				<stop  offset="7.257640e-002" style="stop-color:#5489FF"/>
				<stop  offset="0.2791" style="stop-color:#4EB3FF"/>
				<stop  offset="0.4801" style="stop-color:#49D4FF"/>
				<stop  offset="0.6715" style="stop-color:#45ECFF"/>
				<stop  offset="0.8493" style="stop-color:#43FAFF"/>
				<stop  offset="1" style="stop-color:#42FFFF"/>
			</linearGradient>
			<path class="st55" d="M650.6,213.3c2,4.7,11.4,4.6,22.9,4.8c2.9,0,5.3-0.8,7.2-2.1c-2,1.9-4.7,3.3-8.5,3.3
				c-10.9-0.1-19.9-0.1-21.7-4.5c-0.6-1.5-0.8-4.4-0.6-8C649.9,209.6,650.1,212,650.6,213.3z"/>
		</g>
		<path class="st56" d="M662.1,127.2c0,0-2.8,3.4,1.2,8c2.5,2.8,6.7,8.9,10.4,15.2c2.3,3.9,4.4,6,5.6,9.4c0,0,0.2-4,0.3-10.2
			c0.2-5.8,0.2-11.9,0-13.5C679,132.9,665.2,125.7,662.1,127.2z"/>
		<path class="st57" d="M672.5,137.4c0,0,1.4,0.9,1.9,0.8c0.5-0.1,2.1-1.6,2.1-1.6s4-0.1,4.4-1.8c0.4-1.7,0.7-3.4,1.1-4.3
			c0.4-0.9,2.1-5.1,2.1-6.8c0-1.7-0.1-4.8,0.7-6.4c0.7-1.6,1.7-17.9-14-17.5c-15.7,0.5-10.8,16.8-10.8,16.8s-1.1,0.5-0.5,2.6
			c0.7,2.1,0.9,2.3,1.2,3.4c0.4,1,0.5,1.7,1.5,2.6l0.3,1.9c0,0-0.7,3,1.2,5.8C665.8,135.7,672.5,137.4,672.5,137.4z"/>
		<path class="st5" d="M692.9,132.6c0,0,1.7,0.2,7.1,13.9c3,7.6,7.7,15.6,8.7,21.2c1,5.7,0.4,11.7-0.7,12.2
			c-1.1,0.4-20.6,7.7-26.8,10c-0.3,0.1-0.7-0.1-0.8-0.4l-1.7-9.4l12.1-4.7c0,0,2.3-2.8,4.5-3.9c0,0-2.4-4.5-2.3-5.7
			c0.2-1.2-0.2-13.9,1.2-19C695.8,141.6,692.9,132.6,692.9,132.6z"/>
		<path class="st57" d="M685.8,168.8c0,0,1.7-1.1,2.1-1.3c0.4-0.2,2.6-0.9,3.1-1.1c0.3-0.1,1.6,0,2.3,0c0.2,0,0.4,0.2,0.6,0.4
			c0.5,1,2,3.7,1.8,4.8c0,0-4,2.6-4.5,3.7l-0.6,0.1C690.4,175.4,687.7,169.6,685.8,168.8z"/>
		<path class="st5" d="M653,184.4c0.5-1.8,1.1-4,1.8-6.3l24.6,10.5c0,0-7.4,9-20.3,8.5c-3.5-0.2-6.1-1.4-8-2.5
			C651.6,190.6,652.3,186.9,653,184.4z"/>
		<path class="st5" d="M643.5,144.6c0,0,6.5,0.9,11.7,9.2c5.2,8.3,9.1,17.9,9.1,17.9l0.2,1.1c0.5,2.8,3.5,4.4,6.1,3.3
			c5.5-2.5,13.7-6.2,15.2-7.3c0,0,4.9,2.7,6.2,9.1c1.1,5.1,0.8,5.1,0.8,5.1s-21.8,10.2-30.3,10.1s-19.1-27.8-20.3-33.5
			C641.1,153.8,639.8,146.3,643.5,144.6z"/>
		<path class="st58" d="M643.5,144.6c0,0,6.5,0.9,11.7,9.2c5.2,8.3,9.1,17.9,9.1,17.9l0.2,1.1c0.5,2.8,3.5,4.4,6.1,3.3
			c5.5-2.5,13.7-6.2,15.2-7.3c0,0,4.9,2.7,6.2,9.1c1.1,5.1,0.8,5.1,0.8,5.1s-21.8,10.2-30.3,10.1s-19.1-27.8-20.3-33.5
			C641.1,153.8,639.8,146.3,643.5,144.6z"/>
		<path class="st6" d="M667.4,177.4c0,0-2.8,2.6-4,1.2c-1.2-1.4-0.8-1.6-0.8-1.6s-2.5,0-2.8-1.6c-0.3-1.6-1.5-0.7-1.6-2.5
			c-0.1-1.7,2-1.4,2-1.4L667.4,177.4z"/>
		<path class="st57" d="M670.7,176c0,0-0.8-0.7-1.7-1.5c-1-0.8-2.6-4.2-2.8-4.5c-0.3-0.3-3.6-2.8-5.1-2.9c-1.6,0-0.4,1.7,0,2
			c0.4,0.3,1.9,1,1.9,1s1.6,1.3,1.8,1.5c0.2,0.2-4.4-0.3-5.2,0.1c-0.7,0.4-0.6,1.6,0,1.9c0.5,0.3,0.9,0.3,0.9,0.3s-0.5,1.4,0.9,2
			c1.4,0.6,1.7,0.3,1.7,0.3s0.1,2.4,2.4,1.9L670.7,176z"/>
		<path class="st59" d="M685.2,108.9c0,0,2.1,6.5-3.4,4.7c-5.4-1.9-10.3-5-12-3.8c-1.3,0.9-1.2,3.7-1.1,4.9c0,0.4-0.1,0.9-0.3,1.2
			l-1.6,2.3c-0.2,0.3-0.3,0.6-0.3,0.9l-0.1,1.6c0,0.4-0.4,0.7-0.8,0.8l-0.4,0c-0.4,0-0.8-0.3-0.8-0.7l-0.4-2.4c0,0-1.3-3.2-4-1.9
			c0,0-1.8-2.4-1.2-7.6c0.6-5.2,2.9-10.5,13.1-11.4C682,96.7,685.2,108.9,685.2,108.9z"/>
		<path class="st60" d="M669.7,143.1l1.5-1.2c0,0,1.4,1.2,2,2.4c0.5,1.2,0,5.2,0,5.2l0.5,0.8l0.6-1l0.5-4.6c0,0-0.5-3.4-0.6-3.5
			c-0.1-0.1-2.9,0.3-2.9,0.3S670.2,142.2,669.7,143.1z"/>
		<path class="st60" d="M677,138.5c0,0,1.6,0.1,2.4,0.7c0,0-1.7,0.1-2,0.1C677.2,139.4,677,138.5,677,138.5z"/>
		<path class="st5" d="M674,138.9l-2.7,2.5c0,0,2.4,1.1,3.1,3.2c0,0,3,0.6,3.2-0.5c0.3-1.1,0-3.8,0.3-5
			C678.2,138,674,138.9,674,138.9z"/>
		<path class="st5" d="M677.4,144.1c0,0,0.5,2.2,1.1,3.1c0.6,0.9,1.1,1.9,1.1,1.9l-0.1,13.1c0,0-4.8-9.9-5.8-11.9
			c0,0,0.2-4.8,0.6-5.7C674.7,143.7,677.4,144.1,677.4,144.1z"/>
		<path class="st61" d="M664.5,124.8c3.2,9.1,12,11.8,12,11.8s-1.6,1.5-2.1,1.6c-0.5,0.1-1.9-0.8-1.9-0.8s-6.8-1.6-8.7-4.5
			c-2-2.9-1.2-5.8-1.2-5.8l-0.3-1.9C663.7,125.5,664.5,124.8,664.5,124.8z"/>
		<path class="st5" d="M657.3,135.4c0,0,1.2,4.3,1.4,4.5c0.2,0.2,3.1-0.2,3.1-0.2l-1.4,2.7c0,0,14.9,16,18,24.6
			c0,0-7.1-10.9-19.5-24l1.8-2.7l-3.1,0.6L657.3,135.4z"/>
		<path class="st5" d="M681.8,131.6l0.8,0.9l-0.9,0.9l2.8,2.5c0,0,0.8,17.5-2.5,29.1c0,0,4.6-10.6,3.5-29.6l-3-2l1-1L681.8,131.6z"
			/>
		<path class="st53" d="M672.4,228.3c0,0,0,0-0.1,0.1l3.9-4.1c-1.8,2.5,0.3,14.1,0.5,16.7c0.2,2.6-2.1,8.1-2.9,14.5
			c-0.9,6.4,0.9,15.5,0.9,15.5c-1.1-0.6-2-1.7-2.4-3.4c-1.3-6-0.8-17.1,0.6-21.8C674.4,241.2,672.4,228.3,672.4,228.3z"/>
		
			<linearGradient id="SVGID_45_" gradientUnits="userSpaceOnUse" x1="1977.9844" y1="123.8133" x2="2027.5402" y2="123.8133" gradientTransform="matrix(-0.9983 5.790000e-002 5.790000e-002 0.9983 2659.6897 -65.6243)">
			<stop  offset="0" style="stop-color:#5778FF"/>
			<stop  offset="7.257640e-002" style="stop-color:#5489FF"/>
			<stop  offset="0.2791" style="stop-color:#4EB3FF"/>
			<stop  offset="0.4801" style="stop-color:#49D4FF"/>
			<stop  offset="0.6715" style="stop-color:#45ECFF"/>
			<stop  offset="0.8493" style="stop-color:#43FAFF"/>
			<stop  offset="1" style="stop-color:#42FFFF"/>
		</linearGradient>
		<path class="st62" d="M662.5,193.1c-8.4-0.1-19.1-27.8-20.3-33.5c-0.2-1-0.4-2-0.6-3c0,0.1,2.2,6.1,4.3,11.4
			c2.1,5.3,13.4,21.5,19.1,22.6c5.2,1,23.9-7.8,27.5-9.5c0.3,1.9,0.2,2,0.2,2S671,193.2,662.5,193.1z"/>
		<path class="st63" d="M665.3,121.6c-0.4,0-0.8-0.3-0.8-0.7l-0.4-2.4c0,0-1.3-3.2-4-1.9c0,0-1.7-2.3-1.2-7.2c3,4.5,9.6,6.6,9.6,6.6
			l-1.6,2.3c-0.2,0.3-0.3,0.6-0.3,0.9l-0.1,1.6c0,0.4-0.4,0.7-0.8,0.8L665.3,121.6z"/>
	</g>
</g>
<g>
	
		<ellipse transform="matrix(0.9439 -0.3303 0.3303 0.9439 -152.6075 131.9694)" class="st2" cx="312" cy="515" rx="34.5" ry="10.6"/>
	<g>
		<g>
			<g>
				<polygon class="st49" points="299,483.6 299.3,477.9 300.6,474.6 301.4,477.3 				"/>
			</g>
			<g>
				<path class="st50" d="M358.6,484.7l0.2-5.6c0,0-4.7,4.7-4.7,4.8C354.1,484,358.6,484.7,358.6,484.7z"/>
			</g>
			<g>
				<g>
					<path class="st50" d="M328.4,501.2c-16.4-0.4-29.5-8.7-29.1-23.3c0.3-14.5,13.9-25.9,30.4-25.6c16.4,0.4,29.5,12.5,29.1,27
						C358.4,493.8,344.8,501.6,328.4,501.2z"/>
				</g>
				<g>
					
						<ellipse transform="matrix(-2.393973e-002 0.9997 -0.9997 -2.393973e-002 820.8244 167.1823)" class="st50" cx="328.8" cy="484.3" rx="26.3" ry="29.8"/>
				</g>
				<g>
					<path class="st49" d="M308,465.4c-5.4,4.6-8.8,11-9,18.2c-0.3,14.5,12.7,26.6,29.1,27c8.1,0.2,15.6-2.5,21-7L308,465.4z"/>
				</g>
				<g>
					
						<ellipse transform="matrix(-2.394011e-002 0.9997 -0.9997 -2.394011e-002 820.8246 167.1826)" class="st51" cx="328.8" cy="484.3" rx="25.1" ry="28.4"/>
				</g>
				<g>
					
						<ellipse transform="matrix(-2.394201e-002 0.9997 -0.9997 -2.394201e-002 820.8251 167.1834)" class="st52" cx="328.8" cy="484.3" rx="20.1" ry="22.8"/>
				</g>
				<g>
					<path class="st50" d="M351.6,484.8c0-0.5,0-0.9,0-1.4c-1,10.5-11.1,18.5-23.2,18.2c-12.1-0.3-21.8-8.8-22.3-19.3
						c0,0.5-0.1,0.9-0.1,1.4c-0.3,11.1,9.7,20.4,22.3,20.7C340.9,504.7,351.3,496,351.6,484.8z"/>
				</g>
				<g>
					<g>
						<path class="st50" d="M333.2,486l-4.7-4.3c-4.5,1-12.9,2.9-19.6,4.5c1.7,5,5.7,9.2,11.1,11.4L333.2,486z"/>
					</g>
					<g>
						<path class="st50" d="M325.8,499.1c0.7,0.1,1.5,0.1,2.3,0.2c5.5,0.1,10.6-1.7,14.3-4.7l-7.6-7.1L325.8,499.1z"/>
					</g>
					<g>
						<path class="st50" d="M323.5,477l-8.8-8.2c-3,2.6-5.6,5.4-6.3,9.3L323.5,477z"/>
					</g>
				</g>
				<g>
					<path class="st49" d="M328.1,466.6c12.6,0.3,22.6,9.6,22.3,20.7c-0.1,2.3-0.5,4.4-1.4,6.4c1.6-2.6,2.5-5.6,2.5-8.8
						c0.3-11.1-9.7-20.4-22.3-20.7c-10-0.2-18.7,5.3-21.9,13.2C311.2,470.7,319.1,466.3,328.1,466.6z"/>
				</g>
			</g>
			<g>
				<path class="st49" d="M299.3,477.9c-0.1,2.2-0.3,3.7,0.3,5.7c0.7-2.1,2.1-8.5,2.1-8.5l2.3-5.1l1.9-1.6l3.2-2.3l0.3-7.3
					C303.3,463.6,299.5,470.3,299.3,477.9z"/>
			</g>
		</g>
		<g>
			<g>
				<path class="st49" d="M356.9,477.2l0.1-1.5c0-0.2,0.2-0.4,0.4-0.4l0.1,0c0.2,0,0.4,0.2,0.4,0.4l-0.1,1.5c0,0.2-0.2,0.4-0.4,0.4
					l-0.1,0C357,477.6,356.8,477.4,356.9,477.2z"/>
			</g>
			<g>
				<path class="st49" d="M354.2,471.4l0.2-2.7c0-0.2,0.2-0.4,0.4-0.4l0.3,0c0.2,0,0.4,0.2,0.4,0.5l-0.2,2.7c0,0.2-0.2,0.4-0.4,0.4
					l-0.3,0C354.4,471.9,354.2,471.7,354.2,471.4z"/>
			</g>
			<g>
				<path class="st49" d="M350.6,466.4l0.2-2.6c0-0.3,0.2-0.5,0.5-0.5l0.5,0c0.3,0,0.5,0.2,0.5,0.5l-0.2,2.6c0,0.3-0.2,0.5-0.5,0.5
					l-0.5,0C350.8,466.9,350.6,466.7,350.6,466.4z"/>
			</g>
			<g>
				<path class="st49" d="M345.2,462.4l0.2-3.2c0-0.3,0.2-0.5,0.5-0.5l0.5,0c0.3,0,0.5,0.2,0.5,0.5l-0.2,3.2c0,0.3-0.2,0.5-0.5,0.5
					l-0.5,0C345.4,462.9,345.2,462.7,345.2,462.4z"/>
			</g>
			<g>
				<path class="st49" d="M339.7,459.8l0.2-3.6c0-0.3,0.2-0.5,0.5-0.5l0.5,0c0.3,0,0.5,0.2,0.5,0.5l-0.2,3.6c0,0.3-0.2,0.5-0.5,0.5
					l-0.5,0C339.9,460.3,339.7,460,339.7,459.8z"/>
			</g>
			<g>
				<path class="st49" d="M334.2,458.1l0.2-3.5c0-0.3,0.2-0.5,0.5-0.5l0.5,0c0.3,0,0.5,0.2,0.5,0.5l-0.2,3.5c0,0.3-0.2,0.5-0.5,0.5
					l-0.5,0C334.4,458.6,334.2,458.4,334.2,458.1z"/>
			</g>
			<g>
				<path class="st49" d="M328.7,457.6l0.2-3.5c0-0.3,0.2-0.5,0.5-0.5l0.5,0c0.3,0,0.5,0.2,0.5,0.5l-0.2,3.5c0,0.3-0.2,0.5-0.5,0.5
					l-0.5,0C328.9,458.1,328.7,457.9,328.7,457.6z"/>
			</g>
			<g>
				<path class="st49" d="M323.2,457.7l0.2-3.3c0-0.3,0.2-0.5,0.5-0.5l0.5,0c0.3,0,0.5,0.2,0.5,0.5l-0.2,3.3c0,0.3-0.2,0.5-0.5,0.5
					l-0.5,0C323.4,458.2,323.2,458,323.2,457.7z"/>
			</g>
			<g>
				<path class="st49" d="M317.7,458.9l0.2-3.2c0-0.3,0.2-0.5,0.5-0.5l0.5,0c0.3,0,0.5,0.2,0.5,0.5l-0.2,3.2c0,0.3-0.2,0.5-0.5,0.5
					l-0.5,0C317.9,459.4,317.7,459.2,317.7,458.9z"/>
			</g>
			<g>
				<path class="st49" d="M312.1,461.6l0.2-3.5c0-0.3,0.2-0.5,0.5-0.5l0.5,0c0.3,0,0.5,0.2,0.5,0.5l-0.2,3.5c0,0.3-0.2,0.5-0.5,0.5
					l-0.5,0C312.3,462.1,312.1,461.9,312.1,461.6z"/>
			</g>
		</g>
	</g>
</g>
<g>
	
		<ellipse transform="matrix(0.9439 -0.3303 0.3303 0.9439 -113.862 278.8392)" class="st2" cx="763.5" cy="474.5" rx="34.5" ry="10.6"/>
	<g>
		<g>
			<g>
				<polygon class="st49" points="750.6,443 750.8,437.3 752.1,434 753,436.8 				"/>
			</g>
			<g>
				<path class="st50" d="M810.1,444.1l0.2-5.6c0,0-4.7,4.7-4.7,4.8C805.6,443.5,810.1,444.1,810.1,444.1z"/>
			</g>
			<g>
				<g>
					<path class="st50" d="M779.9,460.6c-16.4-0.4-29.5-8.7-29.1-23.3c0.3-14.5,13.9-25.9,30.4-25.6c16.4,0.4,29.5,12.5,29.1,27
						C810,453.3,796.4,461,779.9,460.6z"/>
				</g>
				<g>
					
						<ellipse transform="matrix(-2.393973e-002 0.9997 -0.9997 -2.393973e-002 1242.6027 -325.7593)" class="st50" cx="780.3" cy="443.7" rx="26.3" ry="29.8"/>
				</g>
				<g>
					<path class="st49" d="M759.6,424.8c-5.4,4.6-8.8,11-9,18.2c-0.3,14.5,12.7,26.6,29.1,27c8.1,0.2,15.6-2.5,21-7L759.6,424.8z"/>
				</g>
				<g>
					
						<ellipse transform="matrix(-2.394019e-002 0.9997 -0.9997 -2.394019e-002 1242.603 -325.7591)" class="st51" cx="780.3" cy="443.7" rx="25.1" ry="28.4"/>
				</g>
				<g>
					
						<ellipse transform="matrix(-2.393897e-002 0.9997 -0.9997 -2.393897e-002 1242.6022 -325.7597)" class="st52" cx="780.3" cy="443.7" rx="20.1" ry="22.8"/>
				</g>
				<g>
					<path class="st50" d="M803.1,444.3c0-0.5,0-0.9,0-1.4c-1,10.5-11.1,18.5-23.2,18.2c-12.1-0.3-21.8-8.8-22.3-19.3
						c0,0.5-0.1,0.9-0.1,1.4c-0.3,11.1,9.7,20.4,22.3,20.7C792.4,464.2,802.9,455.4,803.1,444.3z"/>
				</g>
				<g>
					<g>
						<path class="st50" d="M784.7,445.4l-4.7-4.3c-4.5,1-12.9,2.9-19.6,4.5c1.7,5,5.7,9.2,11.1,11.4L784.7,445.4z"/>
					</g>
					<g>
						<path class="st50" d="M777.3,458.5c0.7,0.1,1.5,0.1,2.3,0.2c5.5,0.1,10.6-1.7,14.3-4.7l-7.6-7.1L777.3,458.5z"/>
					</g>
					<g>
						<path class="st50" d="M775,436.4l-8.8-8.2c-3,2.6-5.6,5.4-6.3,9.3L775,436.4z"/>
					</g>
				</g>
				<g>
					<path class="st49" d="M779.6,426c12.6,0.3,22.6,9.6,22.3,20.7c-0.1,2.3-0.5,4.4-1.4,6.4c1.6-2.6,2.5-5.6,2.5-8.8
						c0.3-11.1-9.7-20.4-22.3-20.7c-10-0.2-18.7,5.3-21.9,13.2C762.7,430.2,770.6,425.8,779.6,426z"/>
				</g>
			</g>
			<g>
				<path class="st49" d="M750.8,437.3c-0.1,2.2-0.3,3.7,0.3,5.7c0.7-2.1,2.1-8.5,2.1-8.5l2.3-5.1l1.9-1.6l3.2-2.3l0.3-7.3
					C754.8,423,751,429.8,750.8,437.3z"/>
			</g>
		</g>
		<g>
			<g>
				<path class="st49" d="M808.4,436.6l0.1-1.5c0-0.2,0.2-0.4,0.4-0.4l0.1,0c0.2,0,0.4,0.2,0.4,0.4l-0.1,1.5c0,0.2-0.2,0.4-0.4,0.4
					l-0.1,0C808.5,437,808.4,436.8,808.4,436.6z"/>
			</g>
			<g>
				<path class="st49" d="M805.8,430.9l0.2-2.7c0-0.2,0.2-0.4,0.4-0.4l0.3,0c0.2,0,0.4,0.2,0.4,0.5l-0.2,2.7c0,0.2-0.2,0.4-0.4,0.4
					l-0.3,0C805.9,431.3,805.8,431.1,805.8,430.9z"/>
			</g>
			<g>
				<path class="st49" d="M802.1,425.9l0.2-2.6c0-0.3,0.2-0.5,0.5-0.5l0.5,0c0.3,0,0.5,0.2,0.5,0.5l-0.2,2.6c0,0.3-0.2,0.5-0.5,0.5
					l-0.5,0C802.3,426.4,802.1,426.1,802.1,425.9z"/>
			</g>
			<g>
				<path class="st49" d="M796.7,421.8l0.2-3.2c0-0.3,0.2-0.5,0.5-0.5l0.5,0c0.3,0,0.5,0.2,0.5,0.5l-0.2,3.2c0,0.3-0.2,0.5-0.5,0.5
					l-0.5,0C796.9,422.3,796.7,422.1,796.7,421.8z"/>
			</g>
			<g>
				<path class="st49" d="M791.3,419.2l0.2-3.6c0-0.3,0.2-0.5,0.5-0.5l0.5,0c0.3,0,0.5,0.2,0.5,0.5l-0.2,3.6c0,0.3-0.2,0.5-0.5,0.5
					l-0.5,0C791.5,419.7,791.3,419.5,791.3,419.2z"/>
			</g>
			<g>
				<path class="st49" d="M785.8,417.6l0.2-3.5c0-0.3,0.2-0.5,0.5-0.5l0.5,0c0.3,0,0.5,0.2,0.5,0.5l-0.2,3.5c0,0.3-0.2,0.5-0.5,0.5
					l-0.5,0C786,418.1,785.8,417.8,785.8,417.6z"/>
			</g>
			<g>
				<path class="st49" d="M780.3,417l0.2-3.5c0-0.3,0.2-0.5,0.5-0.5l0.5,0c0.3,0,0.5,0.2,0.5,0.5l-0.2,3.5c0,0.3-0.2,0.5-0.5,0.5
					l-0.5,0C780.5,417.5,780.3,417.3,780.3,417z"/>
			</g>
			<g>
				<path class="st49" d="M774.7,417.1l0.2-3.3c0-0.3,0.2-0.5,0.5-0.5l0.5,0c0.3,0,0.5,0.2,0.5,0.5l-0.2,3.3c0,0.3-0.2,0.5-0.5,0.5
					l-0.5,0C774.9,417.6,774.7,417.4,774.7,417.1z"/>
			</g>
			<g>
				<path class="st49" d="M769.2,418.3l0.2-3.2c0-0.3,0.2-0.5,0.5-0.5l0.5,0c0.3,0,0.5,0.2,0.5,0.5l-0.2,3.2c0,0.3-0.2,0.5-0.5,0.5
					l-0.5,0C769.4,418.9,769.2,418.6,769.2,418.3z"/>
			</g>
			<g>
				<path class="st49" d="M763.6,421.1l0.2-3.5c0-0.3,0.2-0.5,0.5-0.5l0.5,0c0.3,0,0.5,0.2,0.5,0.5l-0.2,3.5c0,0.3-0.2,0.5-0.5,0.5
					l-0.5,0C763.8,421.6,763.6,421.3,763.6,421.1z"/>
			</g>
		</g>
	</g>
</g>
<polygon class="st2" points="547.3,483.4 485.5,519.1 439.2,491.1 500.1,456.1 "/>
</svg>
