<svg enable-background="new 0 0 60 60" height="512" viewBox="0 0 60 60" width="512" xmlns="http://www.w3.org/2000/svg"><path d="m53 30c0 5.631-2.027 10.787-5.386 14.785l4.252 4.252c4.439-5.094 7.134-11.749 7.134-19.037s-2.695-13.943-7.134-19.038l-4.252 4.252c3.359 3.999 5.386 9.155 5.386 14.786z" fill="#dc691d"/><path d="m7 30c0-5.631 2.027-10.787 5.386-14.785l-4.252-4.252c-4.439 5.094-7.134 11.749-7.134 19.037s2.695 13.943 7.134 19.038l4.252-4.252c-3.359-3.999-5.386-9.155-5.386-14.786z" fill="#ebba16"/><path d="m30 7c5.631 0 10.787 2.027 14.785 5.387l4.252-4.252c-5.094-4.44-11.749-7.135-19.037-7.135s-13.943 2.695-19.038 7.134l4.252 4.252c3.999-3.359 9.155-5.386 14.786-5.386z" fill="#75348b"/><path d="m30 53c-5.631 0-10.787-2.027-14.785-5.387l-4.252 4.252c5.094 4.44 11.749 7.135 19.037 7.135s13.943-2.695 19.038-7.134l-4.252-4.252c-3.999 3.359-9.155 5.386-14.786 5.386z" fill="#ed8a19"/><path clip-rule="evenodd" d="m30 14s-3.741 6-13 6l.037 9.819c0 4.584 1.431 9.13 4.4 12.673 2.044 2.438 4.859 4.508 8.563 4.508s6.519-2.07 8.563-4.509c2.969-3.542 4.4-8.088 4.4-12.673l.037-9.818c-9.259 0-13-6-13-6z" fill="#41965b" fill-rule="evenodd"/><g fill="#4d007e"><path d="m51.866 50.038c-.265 0-.519-.105-.707-.293l-4.252-4.253c-.367-.367-.392-.953-.058-1.351 3.321-3.953 5.151-8.975 5.151-14.141s-1.83-10.188-5.152-14.142c-.334-.397-.308-.983.058-1.351l4.252-4.253c.196-.195.466-.317.741-.292.277.009.538.133.72.342 4.76 5.463 7.381 12.457 7.381 19.696s-2.621 14.233-7.38 19.695c-.182.209-.443.333-.72.342-.011.001-.023.001-.034.001zm-2.909-5.324 2.844 2.845c4.005-4.968 6.199-11.162 6.199-17.559s-2.194-12.591-6.199-17.559l-2.844 2.845c3.258 4.195 5.043 9.385 5.043 14.714s-1.785 10.519-5.043 14.714z"/><path d="m8.134 50.038c-.011 0-.023 0-.034-.001-.277-.009-.538-.133-.72-.342-4.759-5.462-7.38-12.456-7.38-19.695s2.621-14.233 7.38-19.695c.182-.209.443-.333.72-.342.275-.017.545.097.741.292l4.252 4.253c.367.367.392.953.058 1.351-3.321 3.953-5.151 8.975-5.151 14.141s1.83 10.188 5.152 14.142c.334.397.308.983-.058 1.351l-4.252 4.253c-.188.187-.443.292-.708.292zm.065-37.597c-4.005 4.968-6.199 11.162-6.199 17.559s2.194 12.591 6.199 17.559l2.844-2.845c-3.258-4.195-5.043-9.385-5.043-14.714s1.785-10.519 5.043-14.714z"/><path d="m44.785 13.387c-.228 0-.457-.077-.643-.234-3.953-3.323-8.976-5.153-14.142-5.153s-10.189 1.83-14.142 5.152c-.397.334-.984.308-1.351-.059l-4.252-4.253c-.196-.195-.302-.464-.292-.74.01-.277.134-.538.343-.72 5.461-4.759 12.455-7.38 19.694-7.38s14.233 2.621 19.695 7.38c.209.182.333.442.343.72.01.276-.096.545-.292.741l-4.252 4.253c-.196.194-.452.293-.709.293zm-14.785-7.387c5.33 0 10.519 1.785 14.714 5.044l2.844-2.846c-4.967-4.005-11.16-6.198-17.558-6.198s-12.591 2.193-17.559 6.198l2.844 2.846c4.196-3.259 9.385-5.044 14.715-5.044z"/><path d="m30 60c-7.239 0-14.233-2.621-19.695-7.38-.209-.182-.333-.442-.343-.72-.01-.276.096-.545.292-.741l4.252-4.253c.367-.366.954-.394 1.351-.059 3.954 3.323 8.977 5.153 14.143 5.153s10.189-1.83 14.142-5.152c.397-.335.983-.309 1.351.059l4.252 4.253c.196.196.302.465.292.741-.01.277-.134.538-.343.72-5.461 4.758-12.455 7.379-19.694 7.379zm-17.559-8.198c4.968 4.005 11.161 6.198 17.559 6.198s12.591-2.193 17.559-6.198l-2.844-2.846c-4.196 3.259-9.385 5.044-14.715 5.044s-10.519-1.785-14.714-5.044z"/><path d="m30 48c-3.484 0-6.623-1.638-9.329-4.866-2.988-3.564-4.634-8.294-4.634-13.315l-.037-9.815c-.001-.266.104-.521.292-.71.187-.189.442-.294.708-.294 8.548 0 12.01-5.307 12.153-5.532.184-.291.503-.457.849-.466.343.001.662.177.845.467.153.241 3.618 5.531 12.153 5.531.266 0 .521.105.708.294.188.188.292.444.292.71l-.037 9.818c0 5.018-1.646 9.747-4.634 13.312-2.706 3.228-5.845 4.866-9.329 4.866zm-11.996-27.022.033 8.837c0 4.557 1.479 8.829 4.166 12.034 2.309 2.755 4.932 4.151 7.797 4.151s5.488-1.396 7.797-4.151c2.687-3.205 4.166-7.478 4.166-12.03l.033-8.841c-6.678-.303-10.442-3.584-11.996-5.349-1.554 1.765-5.318 5.046-11.996 5.349z"/><path d="m29.001 38c-.304 0-.604-.138-.801-.4l-3-4c-.331-.441-.242-1.068.2-1.399.442-.33 1.069-.242 1.4.2l3 4c.331.441.242 1.068-.2 1.399-.18.135-.391.2-.599.2z"/><path d="m28.999 38c-.184 0-.369-.051-.536-.156-.466-.297-.603-.915-.307-1.381l7-11c.296-.465.914-.602 1.381-.307.466.297.603.915.307 1.381l-7 11c-.191.299-.514.463-.845.463z"/></g></svg>